<svg xmlns="http://www.w3.org/2000/svg" xmlns:xlink="http://www.w3.org/1999/xlink" viewBox="0 0 255.12 123.6"><defs><style>.cls-1,.cls-4{fill:none;}.cls-2{fill:#4a4a49;}.cls-3{clip-path:url(#clip-path);}.cls-4{stroke:#4a4a49;stroke-width:1.49px;}.cls-5{fill:#c71553;}</style><clipPath id="clip-path" transform="translate(0 0)"><rect class="cls-1" width="255.12" height="123.6"/></clipPath></defs><title>us</title><g id="Ebene_2" data-name="Ebene 2"><g id="Ebene_1-2" data-name="Ebene 1"><path class="cls-2" d="M126.75,90.39c-.1,3.39,2.65,5.41,6.46,5.41,3.36,0,6.61-1.51,6.61-4.92,0-1.86-1-3.2-3.49-3.9a5.22,5.22,0,0,0,3.56-5.15,5.64,5.64,0,0,0-1.63-4.1l1.43-1.68-1.48-1.19-1.37,1.66a6.68,6.68,0,0,0-3.58-1c-3.25,0-6.69,2.1-6.69,6.27,0,4,2.74,6.24,6.69,6.24,2.36,0,4.43.78,4.43,2.83s-2.29,3-4.46,3-4.48-1-4.48-3.49Zm1.9-8.56a4.6,4.6,0,0,1,9.19,0,4.36,4.36,0,0,1-4.56,4.39,4.3,4.3,0,0,1-4.63-4.42m27.41,4.73-1.42-1.27a5.49,5.49,0,0,1-4,1.59A4.34,4.34,0,0,1,146,82.93h10.75c.49-5.05-2.44-7.34-6.32-7.34a6.62,6.62,0,0,0,.1,13.24A7.26,7.26,0,0,0,156,86.56Zm-10-5.39a4.24,4.24,0,0,1,4.48-3.7c2.49,0,4.17,1.26,4.27,3.7Zm17.33-5.31h-2V88.51h2.1v-7a3.62,3.62,0,0,1,3.71-3.78,3.39,3.39,0,0,1,2.19.68l1-1.78a4.74,4.74,0,0,0-3-1,4.14,4.14,0,0,0-3.88,2.09l-.14-1.9,0,0Zm10.71,0V88.51h2.09V81.34a3.53,3.53,0,0,1,3.44-3.78A3.42,3.42,0,0,1,183,81.27v7.24h2.1V81.27a3.49,3.49,0,0,1,3.46-3.71c2.07,0,3.27,1.59,3.27,3.66v7.29H194V81.22c0-3.49-2-5.63-5.34-5.63a4.71,4.71,0,0,0-4.46,2.75,4.21,4.21,0,0,0-4.25-2.75,4.09,4.09,0,0,0-3.73,2.14l-.12-1.87h-2l0,0ZM211.8,88.51V75.86h-2.05l0,2.31a5,5,0,0,0-4.68-2.58,6.2,6.2,0,0,0-6.52,6.61A6.28,6.28,0,0,0,205,88.83a5.39,5.39,0,0,0,4.66-2.56l0,2.24Zm-6.68-10.92c6.12,0,6.1,9.31,0,9.31a4.45,4.45,0,0,1-4.54-4.63,4.38,4.38,0,0,1,4.54-4.68m12.51,10.92h2.07V81.73a3.91,3.91,0,0,1,3.81-4.19c2.43,0,3.65,1.44,3.65,4v7h2.1v-7c0-3.82-2.19-5.92-5.36-5.92a4.78,4.78,0,0,0-4.25,2.27l-.12-2h-1.9V88.51Zm27.89-12.65h-2.29l-2.8,6.61-1.34,3.58-1.39-3.61-2.49-6.58h-2.39l5.1,12.48-2.64,6.15h2.27l8-18.63Z" transform="translate(0 0)"/><g class="cls-3"><line class="cls-4" y1="88.2" x2="122.31" y2="88.2"/></g><path class="cls-2" d="M1.4,107.55H0v12H1.84v-8.48l6.47,8.48H9.69v-12H7.87v8.54L1.4,107.55Zm14.1,3.38a4.13,4.13,0,0,0-4.13,4.41,4.08,4.08,0,0,0,4.13,4.4,4.09,4.09,0,0,0,4.17-4.4,4.17,4.17,0,0,0-4.17-4.41m0,1.63A2.59,2.59,0,0,1,18,115.34a2.49,2.49,0,1,1-4.94,0,2.56,2.56,0,0,1,2.46-2.78m5.06,6a1,1,0,1,0,2.07,0,1,1,0,1,0-2.07,0m5.13,1h5.85V118h-2V107.55l-3.76,1.25v1.68l1.95-.58V118h-2v1.6Zm11.52-12v12H38.3V115A2.73,2.73,0,0,1,41,112.06c1.62,0,2.39,1,2.39,2.75v4.75h1.09v-4.75c0-2.27-1.11-3.85-3.35-3.85a3.1,3.1,0,0,0-2.81,1.6v-5Zm16.84,8.27c.31-3.33-1.62-4.91-4-4.86a4.39,4.39,0,0,0,.05,8.77,4.39,4.39,0,0,0,3.45-1.58l-.73-.69a3.57,3.57,0,0,1-2.72,1.17A2.92,2.92,0,0,1,47,115.82Zm-7-1a2.92,2.92,0,0,1,3-2.86,2.78,2.78,0,0,1,3,2.86Zm15.42-2.08a3.55,3.55,0,0,0-3.19-1.8,4.39,4.39,0,0,0,0,8.77,3.69,3.69,0,0,0,3.23-1.86v1.69h1v-8.48h-1v1.68ZM59.3,112c4.16,0,4.16,6.64,0,6.64a3.33,3.33,0,0,1,0-6.64m6.31,7.55H66.7v-12H65.61v12Zm4.07-10.86v2.45H68v1h1.64v4.73c0,1.77.68,2.83,2.43,2.82a3.5,3.5,0,0,0,1.55-.42l-.35-1a2.76,2.76,0,0,1-1.17.33c-1.09,0-1.37-.69-1.37-1.77v-4.73h2.61v-1H70.77v-2.57l-1.09.12Zm5.08-1.15v12h1.09V115a2.73,2.73,0,0,1,2.66-2.93c1.62,0,2.39,1,2.39,2.75v4.75H82v-4.75c0-2.27-1.11-3.85-3.35-3.85a3.1,3.1,0,0,0-2.81,1.6v-5Zm19.55,10.12a3.06,3.06,0,0,1-2.23,1,3.3,3.3,0,0,1,0-6.59,2.89,2.89,0,0,1,2.12.91l.72-.73A3.72,3.72,0,0,0,92.08,111a4.39,4.39,0,1,0,3,7.48l-.75-.77Zm8.63-4.91a3.57,3.57,0,0,0-3.19-1.8,4.39,4.39,0,0,0,0,8.77,3.69,3.69,0,0,0,3.23-1.86v1.69h1v-8.48h-1v1.68ZM99.78,112c4.16,0,4.16,6.64,0,6.64a3.33,3.33,0,0,1,0-6.64m6.25-.93v8.48h1.09v-4.82a2.54,2.54,0,0,1,2.49-2.68,2.38,2.38,0,0,1,1.39.45l.5-1a2.77,2.77,0,0,0-1.82-.6,2.64,2.64,0,0,0-2.56,1.52l-.06-1.39Zm13.8,4.74c.31-3.33-1.61-4.91-4-4.86a4.39,4.39,0,0,0,.05,8.77,4.38,4.38,0,0,0,3.45-1.58l-.73-.69a3.54,3.54,0,0,1-2.72,1.17,2.92,2.92,0,0,1-3.05-2.81Zm-7-1a2.92,2.92,0,0,1,3-2.86,2.78,2.78,0,0,1,3,2.86ZM130,112a3.31,3.31,0,0,1,0,6.59,3.3,3.3,0,0,1,0-6.59m-4.19-4.54v12.06h1l.06-1.62a3.33,3.33,0,0,0,3.16,1.79c2.28,0,4.06-1.58,4.06-4.39s-1.79-4.43-4.06-4.38a3.39,3.39,0,0,0-3.16,1.82V107.5Zm9.93,3.58v8.48h1.1v-4.82a2.54,2.54,0,0,1,2.49-2.68,2.35,2.35,0,0,1,1.38.45l.51-1a2.8,2.8,0,0,0-1.83-.6,2.63,2.63,0,0,0-2.55,1.52l-.07-1.39Zm13,1.68a3.57,3.57,0,0,0-3.19-1.8,4.39,4.39,0,0,0,0,8.77,3.7,3.7,0,0,0,3.23-1.86v1.69h1v-8.48h-1v1.68Zm-3.16-.75c4.15,0,4.15,6.64,0,6.64a3.33,3.33,0,0,1,0-6.64m13.71,7.55v-4.77a3.51,3.51,0,0,0-2.15-3.6,3.44,3.44,0,0,0-4.24,1.32l0-1.43h-1v8.48h1.09v-4.62A2.72,2.72,0,0,1,155.5,112c1.63,0,2.62.94,2.62,2.78v4.75Zm5.63-7.52a3.3,3.3,0,0,1,0,6.59,3.31,3.31,0,0,1,0-6.59m3.1-4.47v5.21A3.39,3.39,0,0,0,164.8,111c-2.28,0-4.06,1.58-4.06,4.38s1.78,4.39,4.06,4.39a3.48,3.48,0,0,0,3.16-1.86l0,1.69h1.06v-12Zm7.62,12h1.1v-8.51h-1.1v8.51Zm-.21-11.13a.78.78,0,1,0,1.55,0,.78.78,0,1,0-1.55,0m10.83,11.13v-4.77a3.49,3.49,0,0,0-2.15-3.6,3.43,3.43,0,0,0-4.23,1.32l0-1.43h-1v8.48h1.09v-4.62a2.72,2.72,0,0,1,2.64-2.91,2.45,2.45,0,0,1,2.63,2.78v4.75Zm14.93-1.14h-7V114.1h6.58V113h-6.58v-4.31H201v-1.13h-8v12h8.18v-1.14Zm1.3-7.34v4.77c0,2.38,1.37,3.88,3.46,3.88a3.28,3.28,0,0,0,2.85-1.6l0,1.43h1v-8.48H208.7v4.62a2.7,2.7,0,0,1-2.64,2.89c-1.62,0-2.54-1-2.54-2.76v-4.75Zm9.43,0v8.48H213v-4.82a2.54,2.54,0,0,1,2.49-2.68,2.38,2.38,0,0,1,1.39.45l.5-1a2.79,2.79,0,0,0-1.82-.6,2.64,2.64,0,0,0-2.56,1.52l-.07-1.39Zm9.8-.12a4.39,4.39,0,1,0,4.13,4.41,4.1,4.1,0,0,0-4.13-4.41m0,1.05a3.09,3.09,0,0,1,3,3.36,3.05,3.05,0,1,1-6.09,0,3.08,3.08,0,0,1,3-3.36m9.93,6.6a3.29,3.29,0,0,1,0-6.55,2.94,2.94,0,0,1,3,3.26,3,3,0,0,1-3,3.29m-3.11,5v-5.76a3.47,3.47,0,0,0,3.16,1.89c2.35,0,4.07-1.65,4.07-4.41a4,4,0,0,0-4-4.36,3.55,3.55,0,0,0-3.25,1.92l0-1.8H227.4V123.6Zm16.5-7.78c.31-3.33-1.61-4.91-4-4.86a4.39,4.39,0,0,0,.05,8.77,4.41,4.41,0,0,0,3.45-1.58l-.73-.69a3.57,3.57,0,0,1-2.72,1.17,2.92,2.92,0,0,1-3.05-2.81Zm-7-1a2.91,2.91,0,0,1,3-2.86,2.79,2.79,0,0,1,3,2.86Z" transform="translate(0 0)"/><path class="cls-5" d="M36.29,50.55A14.37,14.37,0,0,1,21.9,55.91a14.08,14.08,0,0,1-10.2-11.3,13.9,13.9,0,0,1,6.3-14,14,14,0,0,1,14.7.3,14.05,14.05,0,0,1,3.59,19.62m7.8,8c5.28-6,7-15,4.8-23.19C46.13,26.26,38,18.84,28.5,17.84c-6.4-.58-12.45.7-17.1,4.46V0H0V40.74C.05,46,.82,50.12,3,54.12c4.59,8.69,13.83,13.64,24,13.09a26,26,0,0,0,17.09-8.63m47.53-20H64.81c1.43-6.54,6.56-10.68,13.52-10.68,7.2,0,12.11,3.87,13.29,10.68m10.6,8.94a39.32,39.32,0,0,0,.48-5.3c0-14.32-10-24.69-24.37-24.69S53.49,27.93,53.49,42.41,64.25,67.25,79.2,67.25c8.31,0,15.43-2.77,20.25-7.44l-6.33-7.75A20.89,20.89,0,0,1,79.2,56.73c-7,0-12.1-3.48-14-9.18Zm48.5-1.19V19.3H139V45.81c0,6.49-3.87,10.13-10.2,10.13S118.6,52.3,118.6,45.81V19.3H106.89V46.36c0,12.66,9.5,20.81,21.92,20.81S150.72,59,150.72,46.36m27.7-17.09V18c-12.42,0-21.91,8.15-21.91,20.81V65.9h11.71V39.4c0-6.49,3.88-10.13,10.2-10.13m39.42,9.34H191c1.43-6.54,6.56-10.68,13.52-10.68,7.2,0,12.1,3.87,13.29,10.68m10.6,8.94a39.32,39.32,0,0,0,.48-5.3c0-14.32-10-24.69-24.37-24.69S179.7,27.85,179.7,42.41s10.76,24.84,25.72,24.84c8.31,0,15.43-2.77,20.25-7.44l-6.33-7.75a20.89,20.89,0,0,1-13.92,4.67c-7,0-12.1-3.48-14-9.18Zm26.68-18.28V18c-12.42,0-21.92,8.15-21.92,20.81V65.9h11.71V39.4c0-6.49,3.88-10.13,10.21-10.13" transform="translate(0 0)"/></g></g></svg>