<svg xmlns="http://www.w3.org/2000/svg" xmlns:xlink="http://www.w3.org/1999/xlink" width="134" height="60" viewBox="0 0 134 60">
    <defs>
        <path id="dq25d5wi8a" d="M0 0L133.528 0 133.528 59.745 0 59.745z"/>
    </defs>
    <g fill="none" fill-rule="evenodd">
        <g>
            <mask id="uerl70w1hb" fill="#fff">
                <use xlink:href="#dq25d5wi8a"/>
            </mask>
            <path fill="#1A4091" d="M120.978 33.079c-.019-.02-.95-1.043-1.755-2.2-.96-1.36-1.396-2.122-1.516-2.369-.012-.023-.015-.05-.064-.035-.033.015-.909.302-1.672.96-.57.486-1.229 1.493-1.037 2.48.328 1.655 1.866 2.098 3.397 2.007 1.625-.097 2.253-.564 2.58-.747.094-.056.088-.073.067-.096zm-1.106-8.996c.022.928.51 1.878.58 2.023.003.013.012.021.03.013.014-.005.046-.013.094-.03.406-.13 1.773-.592 2.394-1.292.67-.752.88-1.422.918-1.772.048-.608-.245-1.301-1.596-1.301-1.361 0-2.464.972-2.42 2.36zm8.464 10.53c-.044.536-.682.68-1.258.757h-1.835c-.827 0-1.623-.207-2.184-.56-.335-.211-.743-.568-.743-.568s-1.845 1.451-5.102 1.422c-3.899-.033-6.503-1.327-5.763-4.459.805-3.423 5.12-4.294 5.505-4.366.03-.007 0-.036 0-.036s-.705-1.05-.482-2.153c.445-2.22 2.864-4.344 6.768-4.344 1.855 0 3.895.918 3.895 2.631 0 2.701-5.112 4.18-6.013 4.423l-.135.034s.538 1.034 1.183 1.98c.467.687.936 1.267 1.425 1.825l.008-.01s.577-.371 1.213-1.344c.176-.268.429-.83.429-.83.48-.998 1.498-.987 1.72-.913-.008.04-.051.218-.051.218-.184.848-.659 1.76-.917 2.207-.548.968-1.206 1.59-1.396 1.763.694.712 1.448 1.33 2.322 1.81.323.176.607.288.876.37 0 0 .502.137.535.143zm-45.378 12.89c-.208-.235-.888-.626-1.92-.618-3.69.013-6.885 3.918-7.678 6.668-.677 2.342.68 3.978 2.503 3.978 1.594 0 3.508-1.098 4.087-2.312.755-1.597 2.996-6.225 3.182-6.644.147-.328.166-.687-.174-1.071zm8.857-8.437s-8.354 17.885-8.64 18.471c-.425.866-1.383 1.426-2.526 1.426h-2.344c-.056-.004-.071-.06-.03-.138.074-.155.215-.444.397-.835l.147-.281c.055-.118.088-.199-.22.01-.766.52-2.31 1.45-4.886 1.433-3.715-.02-5.146-3.424-3.845-6.703 1.905-4.799 6.273-7.17 9.614-7.192 2.638-.016 3.747.841 4.319 1.393.19.183.182.211.259.061 1.105-2.35 1.682-3.627 1.823-3.937.75-1.642 2.348-3.59 4.545-3.745.562-.036 1.145-.042 1.33-.042.037-.007.077.042.057.08zM19.449 55.182c.833-1.78 1.733-3.672 2.07-4.397 1.062-2.293 3.603-3.898 5.315-3.898 1.366 0 1.946.756 1.494 1.732-.258.553-1.858 3.928-3.148 6.661-.79 1.668-1.472 3.11-1.682 3.54-.037.076-.025.136.034.136h2.344c1.143 0 2.102-.558 2.523-1.423.282-.587.63-1.31.987-2.074.919-1.945 1.948-4.177 2.338-5.015.82-1.693 1.195-5.21-3.105-5.21-2.341 0-3.688.98-4.659 1.659-.163.113-.48.325-.631.427-.19.125-.208.082-.178.02.049-.099 3.997-8.494 4.45-9.473.032-.056.008-.102-.051-.102-.211 0-.716-.01-1.305.029-2.281.137-3.937 2.202-4.717 3.908-.309.677-3.986 8.443-6.315 13.368l-.102.218c-.789 1.666-1.47 3.109-1.677 3.54-.044.078-.028.135.029.137h2.344c1.145 0 2.102-.56 2.525-1.426.288-.585.628-1.308.989-2.072l.128-.285zm80.634 3.713c-.021.039-.018.086.035.086h2.373c.916 0 2.042-.418 2.482-1.348l3.386-7.4c1.308-2.145 4.14-2.769 5.574-1.419.04.038.128.12.199.015 1.426-1.757 1.954-2.295 2.533-3.055.066-.073-.006-.128-.047-.152-.316-.17-.866-.324-1.4-.328-3.133-.016-5.03 1.908-5.34 2.222-.09.09-.16.161-.215.207-.078.068-.116.006-.072-.089l-.021.044.021-.044c.129-.278.738-1.494.951-1.966.018-.04-.024-.09-.051-.09 0 0-2.758-.46-4.292.72-.166.134-.453.44-.63.808 0 0-5.464 11.75-5.486 11.789zm31.294.43c-.92.004-1.75-.654-1.755-1.785-.006-1.134.816-1.795 1.743-1.8l.212.009c.823.088 1.536.727 1.54 1.77.004 1.137-.818 1.8-1.74 1.805zm.248-3.995l-.262-.012c-1.145.006-2.16.822-2.152 2.222.004 1.398 1.03 2.211 2.168 2.205 1.14-.008 2.155-.83 2.15-2.228-.007-1.291-.887-2.079-1.904-2.187zm-.244 1.972h-.467v-.609h.455c.181.007.378.055.378.279.007.276-.133.33-.366.33zm.933-.278c-.009-.51-.297-.713-.788-.75l-.224-.005h-.916l.014 2.526h.521l-.007-1.062h.254l.57 1.056.616-.008-.63-1.098c.322-.028.59-.198.59-.66zM65.607 45.53c.026-.063.01-.106-.063-.106l-4.094-.004c-.06 0-.11.066-.145.142-.062.132-3.186 6.944-3.464 7.54-.311.65-.64 1.32-.972 2.017-.562 1.187-2.044 2.429-4.53 2.477-1.274-.071-1.633-1.126-1.18-2.422.36-1.03 4.428-9.596 4.439-9.625.03-.079.01-.116-.058-.116l-4.093-.005c-.062 0-.11.066-.146.143-.59 1.224-2.909 6.25-3.733 8.121-.948 2.176-.546 5.363 2.658 5.442 2.85.075 4.828-1.271 5.2-1.53.114-.079.186-.124.246-.167.073-.057.1-.043.066.038 0 0-.564 1.194-.639 1.35-.042.073-.026.131.033.134h2.344c1.143 0 2.1-.56 2.521-1.425.29-.586.634-1.31.993-2.075l4.617-9.929zm9.366-6.487s.041-.099-.065-.099c-.217 0-.719-.005-1.298.03-2.277.137-3.937 2.204-4.716 3.911 0 0-7.3 15.5-7.504 15.93-.046.077-.03.133.027.141h2.346c1.142 0 2.1-.563 2.521-1.425l8.689-18.488zM91.499 51.13h6.959s.129.007.175-.117c.077-.245.309-.896.41-1.569.127-.867.427-2.968-1.951-3.004-1.909-.026-3.58 1.605-4.606 3.012-.463.637-.802 1.173-1.022 1.555-.067.109.005.123.035.123zm-3.895 6.543c-1.215-1.233-1.614-2.956-1.052-4.869.561-1.903 1.546-3.236 1.876-3.627 2.182-2.605 5.602-3.964 9.15-3.936 3.477.03 5.243 2.357 5.232 4.42-.002 1.332-.556 2.497-.556 2.497s-.027.095-.098.095H90.884c-.036 0-.085.032-.103.08-.06.17-.309.643-.4 1.21-.21 1.29 0 3.682 3.638 3.682 2.198 0 4.012-1.268 5.026-2.103.646-.531 1.332-.175 1.457-.05-.193.251-1.246 1.493-3.064 2.617-1.445.896-3.196 1.496-5.455 1.516-1.504.015-3.256-.39-4.379-1.532zM47.092 31.659c.833-1.781 1.734-3.671 2.072-4.398 1.062-2.29 3.604-3.895 5.31-3.895 1.372 0 1.953.754 1.494 1.732-.257.552-1.856 3.924-3.147 6.659-.787 1.666-1.47 3.108-1.677 3.543-.042.073-.027.13.03.135h2.342c1.144 0 2.103-.56 2.527-1.422.287-.59.629-1.312.99-2.078.915-1.943 1.949-4.175 2.342-5.013.813-1.69 1.185-5.21-3.112-5.21-2.341 0-3.686.98-4.658 1.658-.163.111-.482.323-.63.426-.195.13-.21.083-.18.02.05-.098 4.073-8.69 4.534-9.666.026-.06.007-.103-.051-.103-.215 0-.718-.013-1.31.023-2.276.137-3.935 2.202-4.714 3.91-.307.678-4.069 8.644-6.396 13.57l-.102.214c-.791 1.668-1.473 3.11-1.68 3.544-.044.072-.03.13.03.136h2.345c1.147 0 2.103-.56 2.524-1.425.284-.587.63-1.312.987-2.076l.13-.284zm39.639-3.946c-.372-.25-1.137-.514-2.388-.357-3.13.392-5.195 2.66-5.453 4.798-.154 1.263.899 1.961 1.89 1.961 2.138 0 3.822-1.074 4.437-2.307.135-.28 1.347-2.959 1.682-3.652.064-.156-.008-.339-.168-.443zm4.815-.38l-2.101 4.566c-.361.764-.727 1.533-1.01 2.121-.425.865-1.385 1.425-2.525 1.425h-2.346c-.057-.007-.07-.062-.03-.137l.487-1.021.127-.273c.099-.206-.121.005-.347.154-1.029.674-2.74 1.54-5.117 1.497-2.562-.04-4.336-2.194-3.214-4.98 1.142-2.817 4.458-4.433 7.632-4.716 2.078-.18 3.755.384 4.381 1.072 0 0 .5-.944.808-1.597.568-1.235-.637-2.548-3.061-2.35-1.426.112-2.309.506-3.913 1.112-.672.25-1.244.173-1.424-.41 1.162-.715 3.718-2.122 6.677-2.122 5.732 0 5.904 3.706 4.976 5.659zm32.475 24.123c-2.145-1.123-4.641-1.644-4.158-3.195.37-1.191 1.671-1.534 2.991-1.534 1.743 0 3.138.522 4.013.954.038.02.962.428 1.486-.594.008-.032 0-.075-.053-.11-.45-.259-2.356-1.377-5.326-1.502-4.37-.183-6.86 1.503-7.657 3.635-.714 1.892.533 3.153 1.694 3.808 1.763.992 4.553 1.928 4.179 3.34-.293 1.155-1.109 1.618-3.614 1.618-1.796 0-3.447-.759-4.444-1.315-.646-.364-1.458.307-1.593.491-.02.03-.015.073.032.115.405.328 2.658 2.014 6.345 2.014 3.364 0 6.69-1.428 7.71-3.893.586-1.409.016-2.986-1.605-3.832zm-81.892-4.799c-3.775 0-7.034 6.754-7.034 8.96 0 1.643 1.011 2.367 2.318 2.367 2.433 0 6.137-4.534 6.725-8.582.346-2.294-.854-2.745-2.01-2.745zm5.126 5.61c-1.54 3.468-5.123 6.901-10.026 6.901-4.768 0-6.201-3.4-5.425-6.058 1.21-4.182 4.639-7.632 10.723-7.632 4.037 0 6.444 2.895 4.728 6.789zm-34.757-.811c-2.155-1.123-4.642-1.642-4.16-3.194.372-1.192 1.671-1.531 2.989-1.531 1.742 0 3.133.52 4.012.95.035.02.963.428 1.483-.594.01-.032 0-.075-.05-.11-.451-.257-2.36-1.377-5.33-1.502-4.362-.182-6.857 1.503-7.652 3.638-.71 1.89.533 3.15 1.695 3.805 1.761.994 4.55 1.928 4.18 3.342-.295 1.156-1.11 1.618-3.616 1.618-1.795 0-3.452-.76-4.446-1.315-.643-.363-1.452.306-1.594.49-.017.03-.012.072.033.114.407.33 2.662 2.018 6.345 2.018 3.366 0 6.687-1.432 7.714-3.896.583-1.408.016-2.981-1.603-3.833zm92.475-27.397c-.203-.233-.88-.623-1.906-.62-3.669.005-6.86 3.88-7.658 6.61-.682 2.33.666 3.962 2.486 3.965 1.581.006 3.49-1.08 4.065-2.284.763-1.588 2.998-6.19 3.186-6.606.147-.323.166-.68-.173-1.065zm8.839-8.366s-8.365 17.768-8.65 18.35c-.421.858-1.377 1.414-2.515 1.41l-2.332-.005c-.058-.004-.075-.063-.028-.137.073-.159.213-.447.396-.832l.144-.279c.054-.12.09-.198-.217.01-.763.517-2.303 1.432-4.86 1.412-3.7-.03-5.116-3.42-3.811-6.68 1.91-4.769 6.26-7.118 9.586-7.126 2.625-.007 3.725.847 4.291 1.398.189.182.178.212.257.06 1.105-2.331 1.685-3.603 1.826-3.912.751-1.626 2.346-3.565 4.531-3.711.558-.038 1.14-.045 1.326-.045.033 0 .072.045.056.087zM64.632 27.59h6.96s.126.008.173-.12c.077-.241.31-.893.413-1.563.126-.868.424-2.97-1.952-3.01-1.904-.024-3.58 1.61-4.609 3.016-.46.637-.803 1.174-1.02 1.556-.063.106.009.121.035.121zm-3.896 6.542c-1.213-1.228-1.616-2.956-1.052-4.867.56-1.901 1.547-3.233 1.876-3.626 2.181-2.607 5.602-3.966 9.15-3.935 3.48.027 5.242 2.353 5.236 4.416-.006 1.333-.557 2.5-.557 2.5s-.026.095-.103.095H64.019c-.038 0-.086.032-.104.077-.059.172-.307.641-.4 1.21-.212 1.29 0 3.684 3.634 3.684 2.2 0 4.016-1.27 5.033-2.107.641-.528 1.325-.17 1.452-.045-.191.25-1.24 1.49-3.06 2.613-1.447.898-3.196 1.496-5.46 1.518-1.5.015-3.255-.386-4.378-1.533zM13.8 26.194c3.195.686 7.897-.362 12.131-3.01 6.34-3.958 9.666-10.072 7.427-13.655 0 0-.012-.013-.015-.023-1.709-2.841-6.33-3.337-10.03-1.235-.2.114-.411.233-.625.376-.133.087-.263.18-.394.28-.13.103-.274.177-.239.29.014.044.037.122.091.122 2.82-.268 5.221.509 6.37 2.346 2.02 3.236-.62 8.532-5.895 11.829-3.169 1.979-6.566 2.782-9.216 2.41l-.677-.115s.258.203 1.072.385zM28.014 5.009c-3.194-.685-7.894.36-12.13 3.008C9.543 11.976 6.218 18.09 8.458 21.67l.013.023c1.709 2.841 6.332 3.34 10.03 1.237.201-.116.412-.234.627-.377.131-.088.262-.176.393-.278.13-.106.276-.179.24-.292-.016-.044-.038-.12-.092-.12-2.82.267-5.221-.511-6.369-2.346-2.02-3.235.618-8.534 5.895-11.83 3.169-1.979 6.567-2.783 9.215-2.411l.676.114s-.256-.202-1.072-.382zm1.326 21.624c-9.756 6.58-21.546 7.143-26.33 1.26-4.787-5.884-.761-15.985 8.993-22.565 9.762-6.582 21.548-7.141 26.334-1.256 4.787 5.88.758 15.98-8.997 22.561z" mask="url(#uerl70w1hb)"/>
        </g>
    </g>
</svg>
