<?xml version="1.0" encoding="UTF-8"?>
<svg width="75px" height="20px" viewBox="0 0 75 20" version="1.1" xmlns="http://www.w3.org/2000/svg" xmlns:xlink="http://www.w3.org/1999/xlink">
    <!-- Generator: Sketch 51.3 (57544) - http://www.bohemiancoding.com/sketch -->
    <title>-logo</title>
    <desc>Created with Sketch.</desc>
    <defs>
        <polygon id="path-1" points="0 0 75 0 75 20 0 20"></polygon>
    </defs>
    <g id="Page-1" stroke="none" stroke-width="1" fill="none" fill-rule="evenodd">
        <g id="loreal_m_pdp_shine_d2b_01a-copy" transform="translate(-30.000000, -21.000000)">
            <g id="Mobile_Nav_Background">
                <g id="nav">
                    <g id="-logo" transform="translate(30.000000, 21.000000)">
                        <mask id="mask-2" fill="white">
                            <use xlink:href="#path-1"></use>
                        </mask>
                        <g id="Clip-2"></g>
                        <path d="M9.78405,11.481148 L1.513425,11.481148 L1.513425,1.83260176 L0,1.83260176 L0,12.6633652 L9.78405,12.6633652 L9.78405,11.481148 Z M8.122125,5.6637779 L10.159575,1.83260176 L8.519925,1.83260176 L7.00005,5.6637779 L8.122125,5.6637779 Z M18.24645,12.2329019 C15.2088,12.2329019 12.7062,9.79073345 12.7062,6.8486963 C12.7062,3.90981054 15.091275,1.35089101 18.363525,1.35089101 C21.556275,1.35089101 23.902125,3.90936035 23.902125,6.8486963 C23.9025,9.79073345 21.282825,12.2329019 18.24645,12.2329019 Z M18.29835,0 C13.9089,0 10.91685,3.09615457 10.91685,6.84546989 C10.91685,10.7918214 14.2224,13.5762896 18.29835,13.5762896 C22.374,13.5762896 25.677525,10.8315138 25.677525,6.84546989 C25.677525,3.09615457 22.6482,0 18.29835,0 Z M34.254525,6.8399925 L29.201025,6.8399925 L29.201025,3.11521291 L34.4316,3.11521291 C35.63505,3.11521291 36.3126,3.67750891 36.556725,4.39144626 C36.7179,4.88186081 36.61425,5.52474207 36.3483,5.96195836 C35.9109,6.68670043 35.080575,6.8399925 34.254525,6.8399925 Z M35.5509,8.13565935 C38.030025,7.47326956 38.271825,5.62558619 38.2599,4.96687301 C38.1114,3.03185144 36.8091,1.83260176 34.46655,1.83260176 L27.645075,1.83260176 L27.645075,12.6633652 L29.200575,12.6633652 L29.200575,8.12095292 L33.64095,8.12095292 L36.90795,12.6633652 L38.8680002,12.6633652 C38.86875,12.6633652 36.518625,9.60607766 35.5509,8.13565935 Z M55.214325,8.50459576 L57.80745,3.33048209 L60.4326,8.50459576 L55.214325,8.50459576 Z M56.7528,1.83260176 L51.249525,12.6633652 L53.10945,12.6633652 L54.5181,9.86021384 L61.11855,9.86021384 L62.53905,12.6633652 L64.38,12.6633652 L58.871925,1.83260176 L56.7528,1.83260176 Z M75,11.481148 L66.729375,11.481148 L66.729375,1.83260176 L65.21595,1.83260176 L65.21595,12.6633652 L75,12.6633652 L75,11.481148 Z M48.635025,0.0838116676 L45.83235,0.0838116676 L44.521275,1.55625586 L48.635025,0.0838116676 Z M48.48495,7.69566685 L48.48495,6.4980679 L42.4629,6.4980679 L42.4629,3.0123429 L50.481075,3.0123429 L50.481075,1.83260176 L40.802175,1.83260176 L40.802175,12.6633652 L50.481075,12.6633652 L50.481075,11.481148 L42.4629,11.481148 L42.4629,7.69566685 L48.48495,7.69566685 Z M43.4607,19.8428062 L44.2371,19.8428062 L44.2371,16.7506284 L43.4607,16.7506284 L43.4607,19.8428062 Z M43.455975,16.2927781 L44.232,16.2927781 L44.232,15.5164134 L43.455975,15.5164134 L43.455975,16.2927781 Z M49.38795,17.536072 L47.72085,17.2521478 C47.379525,17.1925718 47.0298,17.0714688 47.0298,16.7037329 C47.0298,16.0477209 47.866875,15.9453011 48.36315,15.9453011 C49.022025,15.9453011 49.77015,16.1562183 49.810275,16.8249109 L50.550525,16.8249109 C50.517975,16.3487526 50.31435,15.4449822 48.27375,15.4449822 C46.859175,15.4449822 46.26495,16.1072969 46.26495,16.7819171 C46.26495,17.5356218 47.127075,17.7342337 47.50935,17.8001125 L48.70485,18.0058526 C49.6638,18.1741512 49.9488,18.3191146 49.9488,18.7705871 C49.9488,19.3912587 48.9894,19.4996811 48.41985,19.4996811 C47.67165,19.4996811 46.809975,19.270906 46.809975,18.4874883 L46.069725,18.4874883 C46.069725,18.8917651 46.1673,19.2531232 46.6635,19.5842431 C46.92345,19.7585444 47.3466,20 48.4278,20 C49.428,20 50.7129,19.7169011 50.7129,18.6924029 C50.713275,18.0062277 50.14365,17.6687301 49.38795,17.536072 Z M31.306275,18.089214 L32.3799,16.185106 L32.398575,16.185106 L33.388125,18.089214 L31.306275,18.089214 Z M31.913175,15.5407241 L29.392275,19.8670418 L30.32625,19.8670418 L31.026375,18.6074658 L33.7152,18.6074658 L34.377975,19.8670418 L35.367975,19.8670418 L32.940375,15.5407241 L31.913175,15.5407241 Z M37.646625,17.5408741 L39.274425,17.5408741 C40.007925,17.5408741 40.5057,17.3478147 40.5057,16.7636841 C40.5057,16.2153442 39.982875,16.0402176 39.308175,16.0402176 L37.646625,16.0402176 L37.646625,17.5408741 Z M41.5392,19.8356781 L40.616025,19.8356781 L39.381225,18.0804352 C39.3657,18.0578503 39.335625,18.0462953 39.304575,18.0407428 L39.345075,18.0407428 C39.332025,18.0384168 39.31845,18.0375914 39.304575,18.0407428 L37.646625,18.0407428 L37.646625,19.8665916 L36.8286,19.8665916 L36.8286,15.5402739 L39.552225,15.5402739 C40.67355,15.5402739 41.348325,16.0584506 41.348325,16.7569312 C41.348325,17.254924 41.0181,17.805665 40.1607,17.981617 L41.5392,19.8356781 Z M27.100875,17.5408741 L25.473525,17.5408741 L25.473525,16.0402176 L27.134625,16.0402176 C27.8094,16.0402176 28.33215,16.2153442 28.33215,16.7636841 C28.33215,17.3478147 27.834375,17.5408741 27.100875,17.5408741 Z M27.379125,15.5407241 L24.6555,15.5407241 L24.6555,19.8670418 L25.473525,19.8670418 L25.473525,18.041193 L27.379125,18.041193 C28.69455,18.041193 29.175225,17.3601951 29.175225,16.7577565 C29.175225,16.0589008 28.500825,15.5407241 27.379125,15.5407241 Z" id="Fill-1" fill="#000000" mask="url(#mask-2)"></path>
                    </g>
                </g>
            </g>
        </g>
    </g>
</svg>