<?xml version="1.0" encoding="utf-8"?>
<!-- Generator: Adobe Illustrator 22.1.0, SVG Export Plug-In . SVG Version: 6.00 Build 0)  -->
<svg version="1.1"
	 id="svg3449" inkscape:version="0.91 r13725" sodipodi:docname="logo.svg" xmlns:cc="http://creativecommons.org/ns#" xmlns:dc="http://purl.org/dc/elements/1.1/" xmlns:inkscape="http://www.inkscape.org/namespaces/inkscape" xmlns:rdf="http://www.w3.org/1999/02/22-rdf-syntax-ns#" xmlns:sodipodi="http://sodipodi.sourceforge.net/DTD/sodipodi-0.dtd" xmlns:svg="http://www.w3.org/2000/svg"
	 xmlns="http://www.w3.org/2000/svg" xmlns:xlink="http://www.w3.org/1999/xlink" x="0px" y="0px" viewBox="0 0 253 70"
	 style="enable-background:new 0 0 253 70;" xml:space="preserve">
<style type="text/css">
	.st0{fill:#2154AC;}
</style>
<sodipodi:namedview  bordercolor="#666666" borderopacity="1.0" fit-margin-bottom="0" fit-margin-left="0" fit-margin-right="0" fit-margin-top="0" id="base" inkscape:current-layer="layer1" inkscape:cx="288.52612" inkscape:cy="128.31751" inkscape:document-units="px" inkscape:pageopacity="0.0" inkscape:pageshadow="2" inkscape:window-height="1015" inkscape:window-maximized="1" inkscape:window-width="1920" inkscape:window-x="0" inkscape:window-y="0" inkscape:zoom="1.4" pagecolor="#ffffff" showgrid="false">
	</sodipodi:namedview>
<g id="layer1" transform="translate(-59.965221,-329.72955)" inkscape:groupmode="layer" inkscape:label="Layer 1">
	<g id="g14" transform="matrix(2.8538643,0,0,-2.8538643,-72.875028,591.46686)">
		<g id="g20" transform="translate(206.2793,42.4424)">
			<path id="path22" inkscape:connector-curvature="0" class="st0" d="M-87.9,27.1c-3.8,0-24.3-0.1-29.2-0.1
				c-4.9,0-25.4,0.1-29.2,0.1c-0.1,0-0.3-0.1,0-0.1c6.8-1.2,17-2.2,29.2-2.2c12.2,0,22.3,0.9,29.2,2.2C-87.6,27-87.7,27.1-87.9,27.1
				"/>
		</g>
		<g id="g24" transform="translate(196.7797,68.3648)">
			<path id="path26" inkscape:connector-curvature="0" class="st0" d="M-82.6,12.8c0,3.9-2.2,6.2-5.9,6.3c-3.8,0-6-3-6-6.5
				c0-5.5,4.1-6.4,5.9-6.4c2.1,0,4.3,0.9,5.4,2.9l-0.2,0.2c-1.1,0.9-1.6,0.9-2.1,0.3c-0.6-0.6-1.6-1.3-2.8-1.3
				c-1.8,0-3.4,1.4-3.4,3.7h9.1C-82.6,12.3-82.6,12.6-82.6,12.8 M-91.6,14c0,1.4,1.1,3,3.2,3c1.9,0,2.8-1.3,3-3H-91.6z"/>
		</g>
		<g id="g28" transform="translate(201.7054,89.416)">
			<path id="path30" inkscape:connector-curvature="0" class="st0" d="M-85.3,1.2v-14.5c0-1.1,1-1.4,2.2-1.4h0.6V1.2H-85.3z"/>
		</g>
		<g id="g32" transform="translate(224.0438,82.2629)">
			<path id="path34" inkscape:connector-curvature="0" class="st0" d="M-97.6,5.2c-1.5,0-2.8-0.3-4.1-0.9V2.1c1.3,0.6,2.5,1,4.1,1
				c1.6,0,2.8-0.8,2.8-2.3V0.5c-2-0.1-4-0.4-5.1-0.8c-2-0.7-2.9-2-2.9-3.7c0-2.2,1.5-3.8,4.1-3.8c1.3,0,2.9,0.5,3.9,1.2
				c0.3-1,1.1-0.9,2.5-0.9h0.2v8.3C-92.1,4.2-94.6,5.2-97.6,5.2 M-94.9-4.8c-1-0.6-2.3-1-3.3-1c-1.1,0-1.9,0.9-1.9,1.7
				c0,1.5,1,2.3,5.2,2.7C-94.9-1.3-94.9-4.8-94.9-4.8z"/>
		</g>
		<g id="g36" transform="translate(164.2156,58.4134)">
			<path id="path38" inkscape:connector-curvature="0" class="st0" d="M-64.7,18.3c-1.4,0-1.6,0.5-1.6,2.2v6.2h2.2
				c0.7,0,1,0.6,1,1.8v0.3h-3.2v3.1h-2.8V19.7c0-2.4,1.3-3.6,3.7-3.6c1.1,0,2,0.2,3,0.6l-1.1,1.7C-64,18.3-64.3,18.3-64.7,18.3"/>
		</g>
		<g id="g40" transform="translate(133.18,74.442)">
			<path id="path42" inkscape:connector-curvature="0" class="st0" d="M-47.6,9.5c0,0.7,0.5,1.4,2.1,1.4c0.8,0,1.6-0.1,2.3-0.4
				c0.9-0.3,1.4-0.2,1.9,0.7c0.2,0.4,0.3,0.6,0.3,0.8c-1.1,0.5-2.8,0.9-4.2,0.9c-4.1,0-5.2-2.1-5.2-3.4c0-2.2,1.4-3,2.9-3.4
				c1.3-0.3,2.2-0.6,3.7-0.9c0.7-0.1,1-0.6,1-1.2c0-0.8-0.5-1.7-2.2-1.7c-1.5,0-2.3,0.5-3.4,1c-1,0.6-1.4,0.1-1.9-0.5
				c-0.3-0.3-0.4-0.5-0.6-0.7c1.6-1.3,3.4-2,5.4-2c3.8,0,5.6,1.6,5.6,3.8c0,1.9-0.9,3.1-3,3.6c-1,0.2-1.9,0.5-3.1,0.7
				C-47,8.4-47.6,8.7-47.6,9.5"/>
		</g>
		<g id="g44" transform="translate(88.4635,85.3782)">
			<path id="path46" inkscape:connector-curvature="0" class="st0" d="M-23.1,3.5c-0.7,1.2-2.3,2-4,2c-2.3,0-3.5-1.1-4.3-1.8
				c-0.8,1.1-2.3,1.8-3.9,1.8c-1.5,0-2.6-0.4-3.9-1.5c-0.2,0.9-1,1.3-2.2,1.3h-0.4v-15.9h3V0.7c0,1.3,1.2,2.4,2.6,2.4
				c1.4,0,2.6-1.1,2.6-2.5v-11.2h3V0.6c0,1.4,1.2,2.5,2.6,2.5c1.4,0,2.6-1.1,2.6-2.5v-11.2h3V0.2C-22.4,1.8-22.6,2.7-23.1,3.5"/>
		</g>
		<g id="g48" transform="translate(115.0961,81.6366)">
			<path id="path50" inkscape:connector-curvature="0" class="st0" d="M-37.7,5.5v-7.8c0-1.5-1.2-2.7-2.8-2.7
				c-1.6,0-2.8,1.2-2.8,2.7v7.8H-46v-7.6c0-1.6,0.1-2.4,0.6-3.1c0.7-1.2,2.2-1.9,3.9-1.9c2.3,0,3.2,0.9,4.1,1.6
				c0-0.7,0.3-1.3,1.8-1.3h0.7V5.5H-37.7z"/>
		</g>
		<g id="g52" transform="translate(238.9049,87.4373)">
			<path id="path54" inkscape:connector-curvature="0" class="st0" d="M-105.8,2.3c0.3,0,0.6,0,0.6,0.4c0,0.3-0.3,0.4-0.5,0.4h-0.5
				V2.3H-105.8z M-106.2,1h-0.4v2.4h0.9c0.6,0,0.8-0.2,0.8-0.7c0-0.4-0.3-0.6-0.6-0.7l0.7-1.1h-0.4l-0.6,1h-0.4
				C-106.2,2-106.2,1-106.2,1z M-105.8,0.5c0.9,0,1.7,0.7,1.7,1.7c0,1-0.7,1.7-1.7,1.7c-0.9,0-1.7-0.7-1.7-1.7
				C-107.5,1.2-106.7,0.5-105.8,0.5 M-107.9,2.2c0,1.2,1,2.1,2.1,2.1c1.1,0,2.1-0.9,2.1-2.1c0-1.2-1-2.1-2.1-2.1
				C-106.9,0.1-107.9,1-107.9,2.2"/>
		</g>
	</g>
</g>
</svg>
