<svg width="85" height="40" viewBox="0 0 85 40" xmlns="http://www.w3.org/2000/svg" xmlns:xlink="http://www.w3.org/1999/xlink">
    <defs>
        <path id="x2anf6vssa" d="M0 0h2.668v2.63H0z"/>
    </defs>
    <g fill="none" fill-rule="evenodd">
        <path d="M57.361 24.354c-1.49.205-1.716 2.435-1.721 3.084l3.345-1.125c-.028-.492-.34-1.959-1.624-1.959m-5.157 5.253c0-7.548 4.29-8.16 5.294-8.16 3.22 0 4.664 3.093 4.664 5.227 0 .899-.236 1.33-1.651 1.899l-4.79 1.665c0 1.503.58 1.707 1.293 1.707 1.643 0 3.235-2.064 4.155-2.064.494 0 .996.804.996 1.304 0 1.705-2.831 3.826-5.67 3.826-2.434 0-4.291-2.018-4.291-5.404M80.347 32.533c0-3.76-5.153-5.361-5.153-7.284 0-.446.287-.973 1.01-.973 1.73 0 1.256 2.074 2.591 2.074.718 0 1.953-.359 1.953-1.106 0-2.445-2.634-3.967-4.64-3.967-1.699 0-4.146.8-4.25 3.7-.15 4.324 4.955 5.615 4.955 7.33 0 .835-.692.976-1.35.976-2.038 0-2.972-2.236-3.922-2.236-.637 0-1.361.976-1.361 1.951 0 1.416 2.578 3.406 5.508 3.406 2.435 0 4.66-1.406 4.66-3.871M25.736 35.052c0 .522-.245.76-.976.744-1.963-.051-2.841-1.552-2.841-3.223v-8.996c0-1.409 1.457-2.08 2.342-2.094.784-.001 1.016.516 1.016 1.517v.721c.937-1.2 2.363-1.595 3.242-1.595 2.002 0 3.153 1.095 3.455 1.788 1.144-1.466 2.276-1.788 3.405-1.788 4.073 0 4.178 3.722 4.178 4.71v7.744c0 .623-.364.736-1.262.736-2.062 0-2.553-1.27-2.553-3.103l-.004-4.905c0-.877-.262-1.696-1.256-1.696-.968 0-1.88.438-1.88 1.808v6.359c0 .721-.653.99-1.23.99-2.174 0-2.474-1.653-2.474-2.697v-4.695c0-1.184-.406-1.765-1.39-1.765-1.06 0-1.788.792-1.788 1.936l.016 7.504M14.188 32.525c-.79 0-1.045-.653-1.045-1.34 0-2.13 2.797-2.614 3.984-2.614l.09.002c0 3.154-2.006 3.952-3.029 3.952m1.94-11.073c-2.066 0-2.298 1.035-2.33 1.554-.03.525.342 1.448 1.014 1.404.093-.004.37-.012.41-.012.984-.003 2.044.216 2.034 1.214 0 .167-.016.549-.016.549s-7.812-.165-7.812 5.081c0 1.985 1.484 4.13 3.907 4.13 1.623 0 3.218-1.123 3.852-2.64-.095.22-.127.665-.127.849 0 1.599 1.097 1.895 2.685 1.895.622 0 .747-.348.747-1.042v-8.302c-.12-3.946-2.544-4.68-4.364-4.68M44.084 27.2c0-1.668.355-2.616 1.794-2.734 1.158-.09 2.223.72 2.223 2.075 0 2.962-1.321 4.86-4.017 5.037V27.2zm1.56-6.002c-2.877.014-4.768 1.435-4.768 6.054v10.67c0 1.29.325 2.078 1.928 2.078.897 0 1.266-.103 1.266-.66v-4.705c1.1-.173 7.207-1.009 7.207-8.29 0-1.77-1.076-5.147-5.632-5.147z" fill="#FFF"/>
        <path d="M7.11 15.194c1.284 0 2.793.843 2.793 3.479 0 2.975-1.88 5.08-5.75 5.877a28.716 28.716 0 0 1-.256-3.709c0-3.82 1.166-5.647 3.213-5.647M0 20.528c0 4.95.857 11.79 1.198 13.764.31 1.782.65 2.757 2.687 2.757 1.14 0 1.618-.128 1.618-.836l-1.055-8.248c1.397-.224 9.173-1.244 9.173-9.977 0-2.58-1.43-6.45-6.235-6.45-3.8 0-7.386 2.307-7.386 8.99M66.884 23.556c0-.664-.01-1.075-.01-1.075 0-.598-.4-.9-1.083-.894-.944.015-2.25.619-2.25 1.986v9.353c0 1.872.668 2.565 2.693 2.565 0 0 1.015-.092 1.015-.644 0-.555-.015-7.47-.015-7.494 0-1.257 1.944-2.147 3.281-2.612.443-.149.616-.57.616-.934 0-.855-.227-2.003-1.21-2.003-.562 0-1.566.24-3.037 1.752" fill="#FFF"/>
        <path d="M51.334 19.528c-2.39 0-9.224-5.962-9.224-9.339 0-1.61 1.12-2.071 2.05-2.071 1.061 0 3.56 1.422 3.56 1.422s.374 6.386 2.904 6.386c.898 0 2.584-1.45 2.584-2.614 0-1.919-1.521-3.43-3.272-4.885.083-.736.578-2.051 1.39-3.059.736-.912 1.762-1.637 3.04-1.655 1.259-.021 2.096 1.3 2.126 3.412.076 5.08-2.992 12.371-5.158 12.403m.376-6.15c0 .204-.075.359-.262.359-1.534 0-1.697-2.961-1.697-2.961 1.206.654 1.959 1.564 1.959 2.602M54.692 0c-2.055.028-4.119 1.79-5.408 3.958-.594 1.01-1.02 2.1-1.205 3.147-1.959-1.198-4.076-1.936-5.463-1.936-3.781 0-4.429 2.822-4.429 4.37 0 5.729 10.958 12.085 14.304 12.085 2.699-.038 7.746-8.143 7.642-14.891-.04-2.767-1.596-6.792-5.441-6.733" fill="#FD0"/>
        <path d="M49.75 10.776c.922.499 1.577 1.148 1.836 1.888.08.23.124.468.124.714 0 .06-.008.116-.022.165-.033.117-.108.194-.24.194-1.534 0-1.697-2.961-1.697-2.961m1.583 8.752c-2.39 0-9.224-5.962-9.224-9.339 0-1.61 1.12-2.071 2.05-2.071 1.061 0 3.56 1.422 3.56 1.422s.374 6.386 2.904 6.386c.898 0 2.584-1.45 2.584-2.614 0-1.919-1.521-3.43-3.272-4.885.083-.736.578-2.051 1.39-3.059.736-.912 1.762-1.637 3.04-1.655 1.259-.021 2.096 1.3 2.126 3.412.076 5.08-2.992 12.371-5.158 12.403m8.799-12.794C60.093 3.967 58.537-.058 54.692 0c-2.055.028-4.119 1.79-5.408 3.958-.594 1.01-1.02 2.1-1.205 3.147-1.959-1.198-4.076-1.936-5.463-1.936-3.781 0-4.429 2.822-4.429 4.37 0 5.729 10.958 12.085 14.304 12.085 2.699-.038 7.746-8.143 7.642-14.891" fill="#FD0"/>
        <g transform="translate(81.542 33.798)">
            <mask id="aum2og5bgb" fill="#fff">
                <use xlink:href="#x2anf6vssa"/>
            </mask>
            <path d="M1.41 1.27c.154 0 .239-.075.239-.188 0-.12-.092-.188-.238-.188h-.292v.376h.292zM.783.781A.17.17 0 0 1 .951.61h.483c.33 0 .56.15.56.45a.422.422 0 0 1-.277.414l.208.248a.151.151 0 0 1 .045.12c0 .09-.069.158-.168.158-.061 0-.1-.03-.138-.068l-.322-.39h-.223v.293a.169.169 0 0 1-.337 0V.78zm1.623.534v-.007c0-.579-.459-1.056-1.07-1.056C.728.252.263.736.263 1.315v.007c0 .58.458 1.056 1.07 1.056.605 0 1.07-.484 1.07-1.063zM0 1.323v-.008C0 .601.59 0 1.334 0c.752 0 1.334.594 1.334 1.308v.007c0 .714-.59 1.315-1.334 1.315A1.317 1.317 0 0 1 0 1.323z" fill="#FFF" mask="url(#aum2og5bgb)"/>
        </g>
    </g>
</svg>
