<?xml version="1.0" encoding="UTF-8"?>
<svg width="191px" height="35px" viewBox="0 0 191 35" version="1.1" xmlns="http://www.w3.org/2000/svg" xmlns:xlink="http://www.w3.org/1999/xlink">
    <title>8E62EED9-EFE6-4B90-AC2A-07950B41E9D2</title>
    <defs>
        <filter id="filter-1">
            <feColorMatrix in="SourceGraphic" type="matrix" values="0 0 0 0 0.000000 0 0 0 0 0.000000 0 0 0 0 0.000000 0 0 0 1.000000 0"></feColorMatrix>
        </filter>
    </defs>
    <g id="Desktop" stroke="none" stroke-width="1" fill="none" fill-rule="evenodd">
        <g id="Pantene_Black" transform="translate(-51.000000, -40.000000)" filter="url(#filter-1)">
            <g transform="translate(51.000000, 40.000000)">
                <path d="M11.713205,19.0465093 L7.29206274,19.0465093 L7.29206274,2.7288883 L11.8704848,2.7288883 C16.505347,2.77059323 18.6011565,6.58621481 18.6011565,11.0133823 C18.6011565,16.1658363 16.1904111,19.0400639 11.713205,19.0465093 M13.246871,0.000627876278 L0,0.000627876278 L0,0.23607114 C0.302519011,0.552649441 0.929756812,1.16533272 0.929756812,3.63388519 L0.929756812,30.3819081 C0.929756812,32.8523563 0.302519011,33.4707266 0,33.781997 L0,34.0227481 L8.22294835,34.0227481 L8.22294835,33.781997 C7.91403279,33.4707266 7.29206274,32.8523563 7.29206274,30.3819081 L7.29206274,21.767187 L12.8502852,21.767187 C21.228632,21.8998845 25.3991801,15.7324842 25.3991801,11.0133823 C25.3991801,3.95842534 19.5843433,-0.05775902 13.085076,0.000627876278" id="Fill-1" fill="#000000"></path>
                <path d="M78.2252456,0.000627876278 L78.2252456,24.6270075 L62.3042419,0.000627876278 L54.980949,0.000627876278 L54.980949,0.23607114 C56.0160607,0.926477231 56.6052955,2.39752371 56.6052955,4.60106034 L56.6052955,30.3819081 C56.6052955,32.8527354 55.9870881,33.4707266 55.6800539,33.781997 L55.6800539,34.0227481 L59.8366801,34.0227481 L59.8366801,7.70239028 L76.4180331,34.0227481 L81.457759,34.0227481 L81.457759,3.63388519 C81.457759,1.16533272 82.0767189,0.546962405 82.3833769,0.23607114 L82.3833769,0.000627876278 L78.2252456,0.000627876278" id="Fill-3" fill="#000000"></path>
                <path d="M160.910389,0.000627876278 L160.910389,24.6270075 L144.98788,0.000627876278 L137.668726,0.000627876278 L137.668726,0.23607114 C138.700452,0.926477231 139.288934,2.39752371 139.288934,4.60106034 L139.288934,30.3819081 C139.288934,32.8527354 138.674489,33.4707266 138.361811,33.781997 L138.361811,34.0227481 L142.523329,34.0227481 L142.523329,7.70239028 L159.1028,34.0227481 L164.142902,34.0227481 L164.142902,3.63388519 C164.142902,1.16533272 164.764496,0.546962405 165.067015,0.23607114 L165.067015,0.000627876278 L160.910389,0.000627876278" id="Fill-4" fill="#000000"></path>
                <path d="M134.639773,29.7434436 C130.881614,31.8897308 121.494495,30.8372501 121.494495,30.8372501 L121.494495,17.970143 L126.508634,17.970143 C128.642447,17.970143 130.287864,18.1381001 130.956492,18.6101241 L131.170964,18.6101241 L131.170964,14.7107135 L130.956492,14.7107135 C130.287864,15.1903202 128.642447,15.3541068 126.508634,15.3541068 L121.494495,15.3541068 L121.494495,2.91921442 C121.494495,2.91921442 130.1573,2.1871034 134.471958,4.19311033 L134.6552,4.07557827 C134.576561,3.23124309 134.272536,0.000627876278 134.272536,0.000627876278 L114.193778,0.000627876278 L114.193778,0.23607114 C114.507961,0.552649441 115.129555,1.16533272 115.129555,3.63388519 L115.129555,30.3819081 C115.129555,32.8481858 114.507961,33.4707266 114.193778,33.781997 L114.193778,34.0227481 L134.430192,34.0227481 L134.833927,29.8666627 L134.639773,29.7434436" id="Fill-5" fill="#000000"></path>
                <path d="M189.822402,29.7434436 C186.06048,31.8897308 176.67336,30.8372501 176.67336,30.8372501 L176.67336,17.970143 L181.689005,17.970143 C183.819431,17.970143 185.467859,18.1381001 186.134981,18.6101241 L186.352087,18.6101241 L186.352087,14.7107135 L186.134981,14.7107135 C185.467859,15.1903202 183.819431,15.3541068 181.689005,15.3541068 L176.67336,15.3541068 L176.67336,2.91921442 C176.67336,2.91921442 185.339175,2.1871034 189.64819,4.19311033 L189.835947,4.07557827 C189.754297,3.23124309 189.451026,0.000627876278 189.451026,0.000627876278 L169.374148,0.000627876278 L169.374148,0.23607114 C169.686074,0.552649441 170.306539,1.16533272 170.306539,3.63388519 L170.306539,30.3819081 C170.306539,32.8481858 169.686074,33.4707266 169.374148,33.781997 L169.374148,34.0227481 L189.609058,34.0227481 L190.013169,29.8666627 L189.822402,29.7434436" id="Fill-6" fill="#000000"></path>
                <path d="M109.758337,4.64921057 L109.941956,4.52561233 L109.510377,0.000627876278 L86.002317,0.000627876278 L85.5684807,4.52561233 L85.7573669,4.64921057 C89.1987088,2.87182246 94.5729365,2.88357566 94.5729365,2.88357566 L94.5729365,30.3819081 C94.5729365,32.8527354 93.9479563,33.4707266 93.6454373,33.781997 L93.6454373,34.0227481 L101.859731,34.0227481 L101.859731,33.781997 C101.559094,33.4707266 100.938629,32.8527354 100.938629,30.3819081 L100.938629,2.88357566 C100.938629,2.88357566 106.303826,2.87182246 109.758337,4.64921057" id="Fill-7" fill="#000000"></path>
                <path d="M32.2705759,19.0465093 L36.7760021,5.67211866 L41.282557,19.0465093 L32.2705759,19.0465093 Z M53.825808,33.781997 C53.0348939,33.2754717 52.1939362,32.2176831 51.4000119,29.881449 L41.3420073,0.000627876278 L33.6710433,0.000627876278 L33.6710433,0.234175461 C34.2301766,0.599662266 34.696372,1.56380433 34.2719423,2.82215568 C33.8952986,3.95311744 25.1914805,29.8162377 25.1914805,29.8162377 C24.3640684,32.1994846 23.529131,33.2500696 22.7517625,33.781997 L22.7517625,34.0227481 L27.2319788,34.0227481 L31.3566223,21.767187 L42.1965106,21.767187 L46.3200253,34.0227481 L53.825808,34.0227481 L53.825808,33.781997 L53.825808,33.781997 Z" id="Fill-8" fill="#000000"></path>
            </g>
        </g>
    </g>
</svg>