<?xml version="1.0" encoding="UTF-8"?>
<svg width="383px" height="299px" viewBox="0 0 383 299" version="1.1" xmlns="http://www.w3.org/2000/svg" xmlns:xlink="http://www.w3.org/1999/xlink">
    <!-- Generator: Sketch 53.2 (72643) - https://sketchapp.com -->
    <title>Logo_sansosan_NEU</title>
    <desc>Created with Sketch.</desc>
    <defs>
        <polygon id="path-1" points="0.0901176471 0.863944724 382.040247 0.863944724 382.040247 298.909849 0.0901176471 298.909849"></polygon>
    </defs>
    <g id="Desktop" stroke="none" stroke-width="1" fill="none" fill-rule="evenodd">
        <g id="Logo_sansosan_NEU">
            <mask id="mask-2" fill="white">
                <use xlink:href="#path-1"></use>
            </mask>
            <g id="Clip-2"></g>
            <path d="M191.471463,271.77297 C258.738278,271.77297 313.266965,217.222749 313.266965,149.931221 C313.266965,82.641196 258.738278,28.0924774 191.471463,28.0924774 C124.204647,28.0924774 69.6759608,82.641196 69.6759608,149.931221 C69.6759608,217.222749 124.204647,271.77297 191.471463,271.77297" id="Fill-1" fill="#DAE6F3" mask="url(#mask-2)"></path>
            <path d="M53.1168431,108.111789 C59.6098196,78.2343266 77.6318471,50.4889296 102.526847,31.2041809 C127.283667,11.6444724 159.074169,0.824879397 190.888702,0.863944724 C222.701733,0.805346734 254.501247,11.6309497 279.259569,31.1846482 C304.16358,50.469397 322.181102,78.2283166 328.659059,108.111789 C316.578788,80.1169749 297.059306,56.4073266 272.813153,40.0344472 C248.568502,23.679598 219.814965,14.8793819 190.888702,14.888397 C161.956431,14.8598492 133.201392,23.6645729 108.947729,40.0179196 C84.7000745,56.387794 65.1835961,80.1109648 53.1168431,108.111789" id="Fill-3" fill="#222964" mask="url(#mask-2)"></path>
            <path d="M53.1168431,191.753658 C59.6098196,221.631121 77.6318471,249.373513 102.526847,268.659764 C127.283667,288.219472 159.074169,299.039065 190.888702,299 C222.701733,299.058598 254.501247,288.234497 279.259569,268.679296 C304.16358,249.394548 322.181102,221.637131 328.659059,191.753658 C316.578788,219.748472 297.059306,243.456618 272.813153,259.829497 C248.568502,276.184347 219.814965,284.984563 190.888702,284.97705 C161.956431,285.004095 133.201392,276.199372 108.947729,259.846025 C84.7000745,243.477653 65.1835961,219.75298 53.1168431,191.753658" id="Fill-4" fill="#222964" mask="url(#mask-2)"></path>
            <path d="M18.2097725,162.250322 C19.7883333,162.256332 22.5729686,161.470518 22.787749,159.568337 C22.675102,158.406894 21.8024627,157.264985 19.7267529,156.219236 C10.8456588,151.783819 0.690901961,148.966608 0.333435294,137.002101 C0.49714902,126.392859 9.35721569,120.16795 19.3257294,120.124377 L38.5448196,120.124377 L38.5448196,134.991739 L31.7965098,134.991739 L27.8133098,135.008266 C26.4690549,135.015779 19.9310196,135.075879 18.8481059,135.487568 C17.9198941,135.897754 17.5323882,136.506271 17.5444039,137.51596 C17.6255098,138.433995 18.4786235,139.460211 20.797651,140.531503 L28.9773294,144.239704 C35.5769451,147.186131 41.0921451,151.64709 41.3519843,159.458653 C41.1837647,171.762729 31.5546941,177.140221 20.3350471,177.116181 L0,177.116261 L0,162.250322 L18.2097725,162.250322 Z M84.4297216,176.66092 L84.4297216,149.130382 C84.4132,140.575075 79.9944314,135.221623 71.2064588,135.102925 C65.2586941,135.349337 60.209102,140.659216 59.979302,146.559583 C59.9507647,155.370317 64.0601294,161.212085 73.3227216,161.357829 C74.4326706,161.333789 75.5381137,161.144472 76.6690902,160.801899 L81.2005059,159.380523 L81.2005059,176.620352 C77.5597529,177.413678 74.1352824,177.85091 70.4029098,177.895985 C54.3980157,177.65408 42.8103882,163.994739 42.6571882,148.452749 C42.7968706,130.921432 54.9447294,118.916357 72.4305569,118.781131 C89.622,118.958427 101.50251,131.82294 101.64069,148.787809 L101.64069,176.66092 L84.4297216,176.66092 Z M110.766604,130.676523 C115.319047,123.112874 123.189322,119.081633 131.918718,119.002 C146.226396,119.113186 157.04502,129.106397 157.199722,143.613156 L157.199722,176.881789 L140.102902,176.881789 L140.102902,144.744548 C140.138949,139.347523 137.774863,135.137482 131.924725,134.991739 C126.227788,135.179553 124.23018,139.640513 124.300773,144.735533 L124.300773,176.773608 L107.429247,176.773608 L107.429247,143.058729 C107.474306,138.433995 108.585757,134.297578 110.766604,130.676523 L110.766604,130.676523 Z M207.052804,122.768799 C216.648831,128.284523 221.752494,137.945678 221.857631,148.897492 C221.660875,165.966035 208.430102,178.092814 191.639682,178.238558 C174.373141,178.092814 161.15889,165.698588 160.971145,148.228874 C161.17391,130.939462 174.726102,118.926874 191.639682,118.781131 C197.356145,118.829211 202.506369,120.158935 207.052804,122.768799 L207.052804,122.768799 Z M200.968361,157.814905 C203.43458,155.244106 204.738282,152.085824 204.873459,148.224367 C204.664686,140.52399 198.966247,135.349337 191.418894,135.102925 C183.98569,135.299754 178.282745,140.875578 178.069467,148.341563 C178.282745,155.852623 184.018733,161.596729 191.527035,161.80107 C195.403596,161.703407 198.523169,160.364668 200.968361,157.814905 L200.968361,157.814905 Z M243.04429,162.250322 C244.630361,162.256332 247.411992,161.470518 247.634282,159.568337 C247.517129,158.406894 246.648996,157.264985 244.571784,156.219236 C235.687686,151.783819 225.531427,148.966608 225.176965,137.002101 C225.340678,126.392859 234.191733,120.16795 244.166255,120.124377 L263.385345,120.124377 L263.385345,134.991739 L256.637035,134.991739 L252.653835,135.008266 C251.311082,135.015779 244.767039,135.075879 243.687129,135.487568 C242.76042,135.897754 242.368408,136.506271 242.384929,137.51596 C242.466035,138.433995 243.317647,139.460211 245.639678,140.531503 L253.813349,144.239704 C260.417471,147.186131 265.932671,151.64709 266.194012,159.458653 C266.028796,171.762729 256.390714,177.140221 245.177075,177.116181 L224.83602,177.116261 L224.83602,162.250322 L243.04429,162.250322 Z M309.270247,176.66092 L309.270247,149.130382 C309.253725,140.575075 304.836459,135.221623 296.045482,135.102925 C290.09922,135.349337 285.045122,140.659216 284.822831,146.559583 C284.789788,155.370317 288.903659,161.212085 298.163247,161.357829 C299.271694,161.333789 300.377137,161.144472 301.51262,160.801899 L306.041031,159.380523 L306.041031,176.620352 C302.395773,177.413678 298.978812,177.85091 295.246439,177.895985 C279.240043,177.65408 267.646408,163.994739 267.497714,148.452749 C267.634392,130.921432 279.785255,118.916357 297.26958,118.781131 C314.459522,118.958427 326.338529,131.82294 326.478212,148.787809 L326.478212,176.66092 L309.270247,176.66092 Z M335.602624,130.676523 C340.158071,123.112874 348.028345,119.081633 356.759243,119.002 C371.060914,119.113186 381.885545,129.106397 382.040247,143.613156 L382.040247,176.881789 L364.938922,176.881789 L364.938922,144.744548 C364.976471,139.347523 362.610882,135.137482 356.765251,134.991739 C351.071318,135.179553 349.078216,139.640513 349.136792,144.735533 L349.136792,176.773608 L332.263765,176.773608 L332.263765,143.058729 C332.314831,138.433995 333.426282,134.297578 335.602624,130.676523 L335.602624,130.676523 Z" id="Fill-6" fill="#222964" mask="url(#mask-2)"></path>
        </g>
    </g>
</svg>