<svg xmlns="http://www.w3.org/2000/svg" viewBox="0 0 233.42 57.95"><path d="M4.56,52.52c.1,2.25,2,3,4,3s3.88-.73,3.88-3c0-1.58-1.33-2.07-2.7-2.38s-2.65-.43-2.65-1.27c0-.69.78-.79,1.3-.79.84,0,1.53.24,1.6,1.15h2.23c-.19-2.09-1.9-2.72-3.76-2.72s-3.71.56-3.71,2.74c0,1.5,1.35,2,2.7,2.27,1.68.36,2.66.61,2.66,1.32S9.25,54,8.57,54c-.92,0-1.77-.41-1.8-1.43Z" style="fill:#f3332d"/><path d="M26.8,46.77H24.4l-1.57,5.77h0l-1.45-5.77H19.08l-1.42,5.78h0l-1.57-5.78H13.59l2.7,8.52h2.42l1.45-5.72h0l1.51,5.72h2.41l2.68-8.52Z" style="fill:#f3332d"/><path d="M30.8,43.53H28.46v1.92H30.8V43.53ZM28.46,55.29H30.8V46.77H28.46v8.52Z" style="fill:#f3332d;fill-rule:evenodd"/><path d="M36.14,44.22H33.8v2.55H32.38v1.56H33.8v5c0,1.7,1.25,2,2.68,2a9,9,0,0,0,1.37-.08V53.47a3.54,3.54,0,0,1-.73.07c-.79,0-1-.2-1-1V48.33h1.72V46.77H36.13V44.22Z" style="fill:#f3332d"/><path d="M39,55.29h7.83V53.52H42.06l4.43-5V46.77H39.31v1.76h4.1l-4.43,5v1.77Z" style="fill:#f3332d"/><path d="M50.55,50.11a1.84,1.84,0,0,1,1.87-1.81h.07c1.14,0,1.65.63,1.86,1.81Zm6.14,1.49c.17-2.62-1.23-5.06-4.13-5.06a4.28,4.28,0,0,0-4.36,4.19c0,.1,0,.21,0,.31A4.16,4.16,0,0,0,52,55.51a3.11,3.11,0,0,0,.53,0,3.83,3.83,0,0,0,4-2.87H54.48a1.9,1.9,0,0,1-1.84,1.1c-1.3,0-2-.67-2.09-2.15Z" style="fill:#f3332d;fill-rule:evenodd"/><path d="M58.65,55.29H61V51.45c0-1.5.59-2.74,2.3-2.74a3.93,3.93,0,0,1,.84.09V46.62a1.75,1.75,0,0,0-.51-.08,3,3,0,0,0-2.72,1.81h0V46.77H58.65Z" style="fill:#f3332d"/><path d="M65.67,55.29H68V43.53H65.67Z" style="fill:#f3332d"/><path d="M72.62,49.39c.08-.92.66-1.29,1.55-1.29s1.52.15,1.52,1.16-1.34.9-2.77,1.12S70,51,70,53c0,1.75,1.28,2.56,2.9,2.56a3.88,3.88,0,0,0,2.86-1.06,4,4,0,0,0,.17.83h2.37a4.41,4.41,0,0,1-.3-1.9V49c0-2-2-2.42-3.74-2.42-1.91,0-3.87.66-4,2.85ZM75.69,52a1.75,1.75,0,0,1-1.5,1.95,1.77,1.77,0,0,1-.4,0c-.76,0-1.43-.22-1.43-1.09s.66-1.1,1.38-1.25a4.72,4.72,0,0,0,2-.49Z" style="fill:#f3332d;fill-rule:evenodd"/><path d="M80.41,55.29h2.34V50.82c0-1.73.54-2.43,1.81-2.43,1.09,0,1.5.69,1.5,2.09v4.81H88.4V50.05c0-2.11-.63-3.51-3.11-3.51A3,3,0,0,0,82.69,48h0V46.77H80.41v8.52Z" style="fill:#f3332d"/><path d="M96.79,51c0,1.4-.46,2.75-2,2.75s-2-1.4-2-2.73.52-2.72,2-2.72,2,1.32,2,2.7Zm0,4.29h2.22V43.53H96.71v4.28h0a3,3,0,0,0-2.53-1.27c-2.5,0-3.78,2.12-3.78,4.41s1.26,4.57,3.83,4.57a2.83,2.83,0,0,0,2.58-1.32h0v1.09Z" style="fill:#f3332d;fill-rule:evenodd"/><path d="M27.94,21.83c-.25-6.51-6.86-8-12.34-8-5.1,0-12,1.66-12,8.08,0,4.35,3,6.7,10.38,8,4.5.78,5.34,1.22,5.34,2.69s-2,2-3.29,2a4,4,0,0,1-2.59-.74,3.14,3.14,0,0,1-1.18-2.25H3c.15,6.56,6.71,9,12.68,9,6.17,0,12.93-1.91,12.93-9,0-4.16-2.84-6.07-6.07-7.1s-6.9-1.27-8.52-2c-.54-.24-1.13-.58-1.13-1.32,0-1.66,1.57-2,2.94-2a3.36,3.36,0,0,1,2.15.74,2.45,2.45,0,0,1,1.13,1.91Z" style="fill:#f3332d"/><path d="M33,39.85h9.69V32.5l1.72-1.86,5.19,9.21H61.21L50.73,24l9.06-9.6h-11l-6.17,7.35,0-19.36H33l0,37.43Z" style="fill:#f3332d"/><path d="M72.8,39.85V14.43H63.1V39.85Z" style="fill:#f3332d"/><path d="M78.45,39.85h9.7V26.43c0-4.06,2.2-4.9,3.87-4.9,2.84,0,3.18,2.06,3.18,5V39.85h9.7V22.41c0-5.82-4.16-8.61-8.72-8.61-3.87,0-6.46,1.32-8.27,3.87h-.1V14.43H78.45Z" style="fill:#f3332d"/><path d="M136,24.08c-.58-7-6.26-10.28-12.92-10.28-7.64,0-13.76,5.33-13.76,13.36s6.12,13.32,13.76,13.32c6.85,0,12.29-3.87,13.22-10.77h-9.26a3.89,3.89,0,0,1-3.77,3.72c-3.72,0-4.26-3.18-4.26-6.27s.54-6.31,4.26-6.31a3.53,3.53,0,0,1,2.45.83,3.48,3.48,0,0,1,1.08,2.4Z" style="fill:#f3332d"/><path d="M157.51,27.12c0,2.69-.49,6.31-4.16,6.31s-4.16-3.62-4.16-6.31.49-6.27,4.16-6.27S157.51,24.42,157.51,27.12Zm9.7,0c0-7.06-4.31-13.32-13.86-13.32S139.5,20.06,139.5,27.12s4.3,13.36,13.85,13.36S167.21,34.17,167.21,27.12Z" style="fill:#f3332d;fill-rule:evenodd"/><path d="M188.75,27.12c0,3-.79,6.31-4.26,6.31s-4.26-3.28-4.26-6.31.78-6.27,4.26-6.27S188.75,24.13,188.75,27.12Zm9.35-24.7h-9.7v14.8h-.1a8.32,8.32,0,0,0-7-3.43c-8.52,0-10.82,7.25-10.82,13.22,0,6.37,3.47,13.47,10.67,13.47,4.75,0,6.22-1.81,7.44-3.43h.1v2.79h9.36V2.42Z" style="fill:#f3332d;fill-rule:evenodd"/><path d="M230.41,29.32c0-9.89-4.35-15.52-14.44-15.52a13,13,0,0,0-13.42,12.66v.75c0,8.47,6.12,13.27,14.25,13.27,5.78,0,11.12-2.54,13.08-8h-9.06a4.86,4.86,0,0,1-4.07,1.81c-3,0-4.7-2-4.94-4.94Zm-18.55-5A4.59,4.59,0,0,1,216.77,20h.08a4.17,4.17,0,0,1,4.26,4.08v.18Z" style="fill:#f3332d;fill-rule:evenodd"/><path d="M165.39,42.6c0-1.4.41-2.36,1.73-2.36a1.25,1.25,0,0,1,1.39,1.09,1.08,1.08,0,0,1,0,.31c0,.84-.95,1.3-1.54,1.67a13,13,0,0,0-4.07,3.1,4.33,4.33,0,0,0-.83,2.83H172V46.43h-5.19c2.16-1.32,5-2.24,5-5.17,0-2.44-1.9-3.61-4.68-3.61-3.08,0-5,1.81-4.86,5Z" style="fill:#f3332d;fill-rule:evenodd"/><path d="M70.88,8.21H69v1.94H67V8.21H65.09V6.28H67V4.35H69V6.28h1.93V8.21ZM63.16,2.42v9.66h9.65V2.42Z" style="fill:#f3332d"/></svg>