<svg viewBox="0 0 140 50" xmlns="http://www.w3.org/2000/svg">
  <path d="M122.300752.52391855h15.949477L136.42839 3.675746h-10.648819V14.1374846h10.212919l-1.813457 3.1601437h-8.399462v10.727856h14.032634l-1.819045 3.1573715h-15.692408V.52391855zm11.878281 16.78202585h-8.399462 8.399462zM122.300752.52391855h15.949477-15.949477zm3.478819 13.61356605h10.212919-10.212919zM122.300752.51560238h15.949477-15.949477zM50.1257325.4268966h3.501173v30.7698195h-3.501173zM22.9825603.52391855h3.48720186v30.6644814H22.9825603zM35.4504247 18.7196929c2.8752649-.59322 4.9765276-1.7325349 6.3093764-3.0492614 1.5032969-1.491366 2.3862743-3.7284151 2.3862743-6.14010362.0460028-2.24897509-.8126816-4.4235365-2.3862743-6.04308167-1.9419914-1.9321229-4.9904988-3.0742099-8.7878605-3.0742099h-4.33106v3.19063624h4.0628137c4.9932931 0 7.9076773 2.28140194 7.9076773 6.04862578 0 7.90035907-11.970491 6.37572837-11.970491 6.37572837l18.6626773 22.054476h4.5741582L35.4504247 18.7196929zM85.5398321 31.191172h3.7554482L75.203967.30492614h-3.2608691L57.8406077 31.191172h3.5794116l5.3621317-11.8893474h13.4318744l5.3258067 11.8893474zm-17.32424-15.0439469l5.3230125-11.81450187 5.2587451 11.81450187H68.2155921zM114.11924 17.4778119v8.0611383c-2.555096 1.977822-5.700704 3.0563945-8.941544 3.0658937-7.5025132 0-12.2219715-5.4304573-12.2219715-12.7514567v-.0887058c0-6.83866169 4.8982892-12.57681722 11.7357755-12.57681722 4.367385 0 7.019111 1.44978519 9.405386 3.5066506l2.252151-2.63068096C113.283764 1.48859397 110.05922 0 104.842389 0c-9.2796458 0-15.502401 7.44851396-15.502401 15.8589313v.0831617c0 8.7652404 6.0103936 15.7757696 15.725939 15.7757696 4.573329-.0091444 8.985598-1.6762458 12.406391-4.6875464V14.1374846l-3.353078 3.3403273zM12.7864068 28.4773293c-5.92377237 0-9.31597034-3.9363192-9.31597034-9.9295039V.52946266H0V19.2824202c0 7.3293156 4.54062742 12.6267142 12.3588893 12.6267142 3.7582424 0 6.4434996-1.3860279 8.4469641-3.3514154v-3.9169149c-1.9128878 2.4629182-4.885735 3.8851365-8.0194466 3.8365252z" fill="#173C47" fill-rule="nonzero"/>
  <path d="M0 .52946266V14.154117"/>
  <path fill="#173C47" fill-rule="nonzero" d="M1.58153546 45.7361488h3.64088463v-1.1892119H1.58153546v-1.9737038h4.19134838v-1.1836678H.30177708v7.7257196H5.8986243v-1.1753517H1.58153546zM14.3008807 41.3895653l-2.9646804 7.7257196h1.3971161l.8382697-2.2675417h2.634961l.8159158 2.2675417h1.3971161l-2.8612938-7.7257196h-1.2574045zm1.4865316 4.3133189h-1.7827202l.9137139-2.4588135.8690063 2.4588135zM28.8225057 45.9745456v.0942499c.0093203.3247322-.0197517.6494292-.0866212.9674475-.1955962.7068742-.7907677 1.1088223-1.6374201 1.1088223-.4833126.0373469-.955596-.1562456-1.2713756-.5211465-.3632502-.4379848-.3548675-.9923959-.3464848-1.6327408v-4.6127009h-1.3244661v4.7984286c0 .8149844 0 1.4082044.5197272 2.0707257.5197272.6625213 1.3607911 1.045065 2.4198051 1.045065 1.8218394 0 2.718788-1.0422929 2.947915-2.0208287.0656632-.2892954.098467-.5849755.0977982-.8815137l.00001-5.0118769h-1.3244761l.0055884 4.5960685zM44.4813833 42.564917h2.2465627v6.5503679h1.3188777V42.564917h2.2325915v-1.1836678h-5.7980319zM61.4395789 44.5386207h-3.7442712v-3.1573715h-1.3132892v7.7340357h1.3132892v-3.3929963h3.7442712v3.3929963h1.3216718v-7.7340357h-1.3216718zM71.2445399 45.7361488h3.6380904v-1.1892119h-3.6380904v-1.9737038h4.1885541v-1.1836678h-5.4711067v7.7257196h5.5996414v-1.1753517h-4.3170888zM88.3396528 43.709776c.0385937-.7106486-.2741973-1.3953961-.8382696-1.8351009-.6175254-.4712495-1.2490219-.4740216-2.2912705-.4851098h-2.9786516v7.7257196h1.2937295v-3.1490554H85.20173l2.0342011 3.1490554h1.5591816l-2.1264108-3.2654818c1.3719681-.3354187 1.6709509-1.3389029 1.6709509-2.1400271zm-1.3104949 0c.0369929.5030158-.3132458.9531604-.8131216 1.0450651-.2875519.0586772-.5813.0819533-.8745947.0693014h-1.816251v-2.3118946h1.8665472c.5588464 0 .9360678.0194044 1.2490218.2772056.269022.2320461.4127995.5758101.3883983.9286387v-.0083162zM98.8012584 47.1776179l-2.1878839-5.7880526h-1.5480046v7.7257196h1.2909353l-.0894155-5.3694721 2.0314069 5.3694721h.9947467l2.0677317-5.4554059-.117358 5.4554059h1.302113v-7.7257196h-1.548005zM111.372509 41.3895653l-2.956297 7.7257196h1.397116l.838269-2.2675417h2.623784l.815916 2.2675417h1.397116l-2.833351-7.7257196h-1.282553zm1.486532 4.3133189h-1.785515l.913714-2.4615856.871801 2.4615856zM122.672385 41.3812492h-1.310495v7.7340357h4.926231v-1.1975281h-3.615736zM133.692837 47.9399332v-2.2037844h3.640884v-1.1892119h-3.640884v-1.9737038h4.191348v-1.1836678h-5.471107v7.7257196h5.599642v-1.1753517z"/>
</svg>
