<svg width="61" height="60" viewBox="0 0 61 60" fill="none" xmlns="http://www.w3.org/2000/svg">
<path d="M32.307 0.0541946C15.4982 -0.931819 1.06347 11.6544 0.0556157 28.2078C-0.952242 44.7612 11.8587 58.9598 28.6676 59.9458C45.4764 60.9318 59.9111 48.3456 60.919 31.7922C61.9269 15.2388 49.1047 1.04021 32.307 0.0541946ZM28.9475 55.1781C14.8151 54.3429 4.04225 42.418 4.88213 28.4978C5.72201 14.5776 17.8947 3.96345 32.0383 4.79866C46.1819 5.63387 56.9436 17.5588 56.1037 31.479C55.2638 45.3992 43.1135 56.0018 28.9699 55.1781H28.9475Z" fill="url(#paint0_linear)"/>
<path d="M17.0436 30.4413L16.9204 31.2533C16.9204 31.4389 16.8645 31.6825 16.8197 31.9725L16.7637 32.5525L16.6853 32.6337H16.2821L16.2149 32.5409C16.2668 32.1534 16.244 31.7591 16.1478 31.3809C16.047 31.2301 15.3975 31.1257 14.2104 31.0793C14.0201 31.0793 13.7177 31.0793 13.3146 31.0793C13.2097 31.9531 13.1499 32.8321 13.1354 33.7125V34.6869L13.9305 34.7449H15.2407C15.2875 34.7497 15.3349 34.7439 15.3793 34.7279C15.4238 34.7119 15.4644 34.686 15.4982 34.6521C15.61 34.3484 15.6669 34.026 15.6662 33.7009H15.7334H16.1702L16.2373 33.7705C16.2373 34.3041 16.1702 34.8029 16.1478 35.2553C16.1254 35.7077 16.1478 36.2645 16.1478 36.8446L16.0694 36.9026H15.6102L15.543 36.8214C15.5839 36.529 15.5839 36.2321 15.543 35.9397C15.4759 35.7657 15.2407 35.6497 14.8375 35.6033L14.0313 35.5337C13.7177 35.5337 13.4265 35.5337 13.169 35.5337V37.2506C13.1209 37.996 13.1209 38.7439 13.169 39.4894C13.1739 39.5541 13.198 39.6157 13.2381 39.6656C13.2783 39.7154 13.3324 39.7512 13.3929 39.7678L14.3896 39.8838L14.4568 39.9534V40.4406L14.3784 40.5102L11.5788 40.3478C11.1757 40.3478 10.6269 40.3478 9.92144 40.3478L9.85425 40.2782V39.7794L9.93264 39.7098C10.2047 39.7331 10.4781 39.7331 10.7501 39.7098C10.8109 39.6973 10.8668 39.6663 10.9107 39.6209C10.9545 39.5755 10.9844 39.5176 10.9965 39.4546C11.0501 38.6977 11.0501 37.9378 10.9965 37.181L11.1421 33.3645C11.1902 32.6191 11.1902 31.8711 11.1421 31.1257C11.1357 31.0615 11.1109 31.0007 11.071 30.9511C11.0312 30.9015 10.9779 30.8654 10.9181 30.8473C10.6593 30.7899 10.3976 30.7473 10.1342 30.7197L10.067 30.6385V30.1513L10.1342 30.0933C10.5821 30.0933 11.2541 30.1861 12.2843 30.2209C12.9226 30.2209 14.524 30.3021 16.9764 30.3833L17.0436 30.4413Z" fill="#231F20"/>
<path d="M27.1228 40.7968L27.0556 40.8664H26.7869L25.5999 40.7968C25.3535 40.7968 24.9839 40.7968 24.48 40.7968C24.4227 40.5876 24.3359 40.3882 24.2224 40.2052L22.5427 37.1775L21.8036 35.9363C21.6904 35.77 21.5546 35.6216 21.4004 35.4955L21.4788 35.2519H21.714C22.0973 35.2839 22.4823 35.2161 22.8338 35.0547C23.1072 34.8841 23.3345 34.6447 23.4946 34.3587C23.7084 34.0125 23.8211 33.6097 23.8193 33.1987C23.8635 32.866 23.8063 32.5274 23.6557 32.23C23.5052 31.9326 23.2687 31.6913 22.9794 31.5399C22.5963 31.3762 22.1843 31.2972 21.77 31.3079C21.5466 31.284 21.3215 31.284 21.0981 31.3079C21.0421 31.7719 20.9973 32.5723 20.9749 33.7091L20.8965 37.4907C20.8478 38.2362 20.8478 38.9841 20.8965 39.7296C20.9052 39.7947 20.932 39.8558 20.9738 39.9053C21.0156 39.9547 21.0705 39.9904 21.1317 40.008C21.1989 40.008 21.4788 40.008 21.9492 40.1008L22.0164 40.1704V40.6576L21.9492 40.7272C21.49 40.7272 20.7733 40.6576 19.8103 40.6344C18.8472 40.6112 18.0857 40.6344 17.6602 40.6344L17.5818 40.5764V40.0776L17.6602 40.008C17.9337 40.0118 18.2072 39.9924 18.4777 39.95C18.5385 39.9374 18.5944 39.9065 18.6382 39.8611C18.6821 39.8157 18.7119 39.7578 18.724 39.6948C18.8186 38.9526 18.8635 38.2045 18.8584 37.4559L18.9368 33.6975C18.9875 32.9483 18.9875 32.1963 18.9368 31.4471C18.9331 31.3832 18.9091 31.3225 18.8686 31.2742C18.8281 31.226 18.7733 31.1929 18.7128 31.1803C18.6456 31.1803 18.3657 31.1803 17.8953 31.0875L17.8282 31.0179V30.519H17.8953C18.3545 30.519 19.0152 30.5886 20.0454 30.6118H23.0018C23.6019 30.5976 24.2 30.6878 24.7712 30.8786C25.0011 30.9662 25.2096 31.1051 25.3818 31.2856C25.5541 31.466 25.6859 31.6835 25.7678 31.9227C25.8502 32.1964 25.8843 32.4832 25.8686 32.7695C25.852 33.4218 25.621 34.0487 25.2137 34.5465C24.8065 35.0443 24.2474 35.3832 23.6289 35.5071L24.3456 36.7483L25.3871 38.4884C25.714 39.1278 26.1248 39.7172 26.6077 40.24C26.7427 40.3247 26.8978 40.3689 27.0556 40.3676L27.1228 40.4372V40.7968Z" fill="#231F20"/>
<path d="M32.2859 40.8105L32.2187 40.8917C31.7596 40.8917 31.0989 40.8337 30.0686 40.8337C29.0384 40.8337 28.3776 40.8337 27.9185 40.8337L27.8513 40.7641V40.2769L27.9185 40.2073C28.1922 40.2039 28.4654 40.1806 28.736 40.1377C28.797 40.1239 28.8523 40.0908 28.8945 40.043C28.9366 39.9952 28.9634 39.9351 28.9712 39.8709C29.0602 39.1284 29.0939 38.3799 29.0719 37.6321V33.8156C29.091 33.0684 29.0648 32.3207 28.9936 31.5768C28.9858 31.5126 28.959 31.4525 28.9169 31.4047C28.8747 31.357 28.8194 31.3239 28.7584 31.31C28.4875 31.2674 28.2146 31.2403 27.9409 31.2288L27.8737 31.1592V30.6836H27.9409C28.3888 30.6836 29.0607 30.6836 30.091 30.6836C31.1213 30.6836 31.782 30.6836 32.2299 30.6836L32.2971 30.7532V31.2404L32.2299 31.31C31.7484 31.31 31.4796 31.31 31.4124 31.3796C31.3514 31.3935 31.2961 31.4266 31.254 31.4743C31.2118 31.5221 31.185 31.5822 31.1772 31.6464C31.0884 32.389 31.051 33.1371 31.0653 33.8852V37.7017C31.0463 38.4528 31.0725 39.2044 31.1437 39.9521C31.1529 40.0157 31.1803 40.075 31.2221 40.1225C31.264 40.17 31.3185 40.2036 31.3788 40.2189C31.446 40.2189 31.726 40.2189 32.1963 40.2885L32.2635 40.3697L32.2859 40.8105Z" fill="#231F20"/>
<path d="M41.7358 38.267C41.6462 39.1486 41.579 39.9838 41.5342 40.761L41.467 40.8306C39.5521 40.8306 38.1075 40.8306 37.1108 40.8306C36.3829 40.8306 35.0951 40.8306 33.2586 40.9234L33.1802 40.8538V40.355C33.5161 39.9026 34.0425 39.195 34.7368 38.1046L35.7446 36.5965L37.01 34.5665C37.4356 33.9169 38.0739 32.8961 38.925 31.5157H37.1668C36.3887 31.4948 35.6101 31.5335 34.8375 31.6317C34.7753 31.653 34.7197 31.6912 34.6765 31.7421C34.6332 31.7931 34.6037 31.855 34.5912 31.9217C34.5912 31.9913 34.5352 32.2117 34.4792 32.5945L34.4232 32.9657L34.3448 33.0353H33.9193L33.8521 32.9541C33.8521 32.4437 33.8521 31.9797 33.8521 31.5737C33.8521 31.4461 33.8521 31.1561 33.8521 30.7037L33.9193 30.6341C34.5613 30.6341 35.9723 30.6341 38.1523 30.6341L41.5118 30.5645L41.579 30.6341V31.0633L41.0191 31.9101C40.4256 32.7685 39.8992 33.5341 39.4849 34.2301L37.4468 37.3853C37.2228 37.745 36.6853 38.6034 35.8454 39.9838H36.9652C38.2244 40.0629 39.4881 39.9811 40.7279 39.7402C40.9106 39.3809 41.0175 38.9855 41.0415 38.5802L41.1198 38.2322L41.1982 38.1626H41.6126L41.7358 38.267Z" fill="#231F20"/>
<path d="M51.1668 38.0129C51.0996 38.8946 51.0437 39.7182 51.0101 40.507L50.9429 40.565L46.5979 40.6578L42.7456 40.8318L42.6672 40.7622V40.2634C43.0032 39.7994 43.5071 39.1034 44.179 37.9433L45.1645 36.4121L46.4075 34.3937C46.8218 33.7209 47.449 32.7001 48.2664 31.2965H46.5195C45.7362 31.2924 44.9537 31.3506 44.179 31.4705C44.1183 31.4925 44.0644 31.531 44.023 31.5821C43.9817 31.6331 43.9543 31.6947 43.9439 31.7605C43.8967 31.9823 43.863 32.207 43.8431 32.4333V32.8045L43.7647 32.8741H43.2831L43.216 32.7929C43.216 32.2825 43.216 31.8185 43.216 31.4125C43.216 31.2849 43.216 30.9949 43.216 30.5424L43.2831 30.4728C43.9215 30.4728 45.3325 30.4728 47.5162 30.3916L50.8757 30.2524L50.9541 30.322V30.7512L50.4053 31.5981C49.823 32.4797 49.2855 33.2453 48.916 33.9181L46.9114 37.1777C46.6875 37.5373 46.1723 38.4074 45.3549 39.811H46.4747C47.7365 39.8639 48.9999 39.7588 50.2374 39.4978C50.4132 39.1371 50.5125 38.7415 50.5285 38.3378C50.5285 38.1985 50.5509 38.0825 50.5957 37.9897L50.6741 37.9085H51.0884L51.1668 38.0129Z" fill="#231F20"/>
<path d="M19.7897 24.5303C19.6553 25.4003 19.5545 26.224 19.4761 27.0012L19.4089 27.0708C17.494 26.9548 16.0494 26.8852 15.0527 26.8388C14.336 26.8388 13.0482 26.7808 11.2005 26.7576L11.1333 26.7344V26.224C11.4917 25.7947 12.0404 25.0639 12.7907 24.0547L13.8545 22.5931L15.2319 20.6559C15.6911 20.0179 16.3518 19.0319 17.27 17.6978L15.5231 17.6282C14.7439 17.5716 13.9618 17.5716 13.1826 17.6282C13.1217 17.6506 13.0667 17.6874 13.0219 17.7358C12.9772 17.7841 12.944 17.8426 12.925 17.9066C12.925 17.9762 12.8579 18.1966 12.7795 18.5794L12.7123 18.9391L12.6339 19.0087H12.2083L12.1412 18.9275C12.1412 18.417 12.2307 17.953 12.2419 17.547C12.2419 17.4194 12.2419 17.1294 12.2419 16.677L12.3091 16.6074C12.9362 16.6074 14.3472 16.735 16.5309 16.8162L19.8905 16.8974L19.9577 16.9786V17.4078L19.3641 18.2198C18.7258 19.0551 18.1883 19.7859 17.7292 20.4239L15.5567 23.4863C15.3103 23.8227 14.7392 24.6463 13.8433 26.0035L14.9632 26.0615C16.2188 26.1989 17.4859 26.1794 18.737 26.0035C18.9209 25.6622 19.0424 25.2886 19.0954 24.9015L19.185 24.5535L19.2633 24.4839H19.6777L19.7897 24.5303Z" fill="#231F20"/>
<path d="M28.5902 24.7972C28.4687 25.5837 28.4051 26.3787 28.3998 27.1752L28.3214 27.2448L23.2597 27.1056C22.4087 27.1056 21.8151 27.1056 21.468 27.1056L21.4008 27.036V26.8272V26.746C21.608 26.6333 21.8 26.4929 21.9719 26.3284C22.0388 26.0123 22.0689 25.6891 22.0615 25.3656V23.7532L22.1287 20.0875C22.163 19.3408 22.1443 18.5925 22.0727 17.8487C22.0649 17.7845 22.0381 17.7244 21.996 17.6766C21.9539 17.6288 21.8985 17.5957 21.8375 17.5819C21.5978 17.523 21.3547 17.4804 21.1096 17.4543H21.0312V16.9555L21.1096 16.8975C21.5688 16.8975 22.2967 16.9671 23.2821 16.9787H28.2654L28.3438 17.0367L28.243 17.8371C28.243 18.0923 28.1758 18.3127 28.1646 18.4867L28.1086 19.1595L28.0303 19.2407H27.6271L27.5599 19.1711C27.606 18.7821 27.5756 18.3875 27.4703 18.0111C27.2374 17.8913 26.98 17.8316 26.72 17.8371C26.2721 17.8371 25.8802 17.7675 25.5442 17.7559C25.2083 17.7443 24.7267 17.7559 24.3124 17.7559C24.2564 18.2547 24.2116 18.9159 24.2004 19.8555V21.3519C24.5588 21.3519 24.8611 21.3519 25.0851 21.3519H26.0033C26.4289 21.3519 26.6753 21.3519 26.7312 21.2591C26.8454 20.9483 26.8987 20.6171 26.888 20.2847L26.9328 20.3543H27.3584L27.4255 20.4239C27.4255 20.9575 27.4255 21.4563 27.4255 21.9087C27.4255 22.3611 27.4255 22.9179 27.4255 23.4979L27.3472 23.5676H26.888L26.8208 23.4979C26.8507 23.1656 26.8164 22.8304 26.72 22.5119C26.6529 22.4075 26.4177 22.3263 26.0481 22.2915C25.6786 22.2567 25.4658 22.2915 25.1411 22.2335C24.8163 22.1755 24.4916 22.2335 24.1892 22.2335V24.4376C24.1892 25.064 24.1892 25.6788 24.1892 26.2704H25.1411C25.975 26.3359 26.8134 26.297 27.6383 26.1544C27.6614 26.1497 27.6834 26.1401 27.7026 26.1261C27.7219 26.1121 27.7382 26.0941 27.7503 26.0732C27.8297 25.9435 27.8795 25.7967 27.8959 25.644L28.0751 24.7508L28.1422 24.6812H28.5678L28.5902 24.7972Z" fill="#231F20"/>
<path d="M39.2499 27.1765L39.1827 27.2461H38.914H37.7157C37.4806 27.2461 37.0998 27.2461 36.5959 27.2461C36.5451 27.038 36.4578 26.8414 36.3383 26.6661L34.6026 23.6732L33.8187 22.4552C33.7046 22.2859 33.5646 22.1371 33.4044 22.0144L33.4827 21.7708H33.6507C34.0371 21.795 34.4229 21.7151 34.7706 21.5388C35.0441 21.3634 35.2712 21.1202 35.4313 20.8312C35.6278 20.4789 35.7284 20.078 35.7224 19.6712C35.7566 19.324 35.6826 18.9746 35.5113 18.674C35.3401 18.3735 35.0805 18.1375 34.7706 18.0007C34.3804 17.8515 33.9654 17.7845 33.5499 17.8035C33.33 17.7858 33.1091 17.7858 32.8892 17.8035C32.8892 18.2791 32.822 19.0795 32.822 20.2164V23.998C32.8046 24.7455 32.8345 25.4934 32.9116 26.2368C32.9194 26.301 32.9462 26.3611 32.9883 26.4089C33.0304 26.4567 33.0858 26.4898 33.1468 26.5036L33.9643 26.5733L34.0315 26.6429V27.1301L33.9643 27.1997C33.4939 27.1997 32.7884 27.1997 31.8142 27.1997C30.8399 27.1997 30.1008 27.1997 29.6641 27.1997L29.5969 27.1301V26.7357L29.6641 26.6661C29.9379 26.6553 30.2108 26.6282 30.4816 26.5849C30.5426 26.571 30.5979 26.5379 30.64 26.4901C30.6821 26.4423 30.7089 26.3822 30.7167 26.318C30.7999 25.5751 30.8298 24.8268 30.8063 24.0792V20.2396C30.8241 19.4921 30.7942 18.7442 30.7167 18.0007C30.7067 17.9356 30.6777 17.8752 30.6337 17.8275C30.5897 17.7799 30.5327 17.7472 30.4704 17.7339C30.2036 17.6906 29.9341 17.6674 29.6641 17.6643L29.5857 17.5831V17.0959L29.6529 17.0263C30.112 17.0263 30.8287 17.0263 31.803 17.0263H33.1916C33.8859 17.0263 34.4122 17.0263 34.7594 17.0263C35.3563 16.9924 35.9544 17.063 36.5287 17.2351C36.7633 17.3178 36.9774 17.4533 37.1555 17.6318C37.3336 17.8103 37.4714 18.0274 37.559 18.2675C37.645 18.5368 37.6866 18.8192 37.6821 19.1028C37.6779 19.7474 37.4665 20.3723 37.0811 20.8786C36.6958 21.3848 36.1586 21.7437 35.5544 21.8984C35.7933 22.3083 36.0397 22.7143 36.2935 23.1164L37.4134 24.8332C37.7606 25.4606 38.1861 26.0378 38.6788 26.5501C38.8129 26.6358 38.9694 26.6763 39.1267 26.6661L39.2499 26.7357V27.1765Z" fill="#231F20"/>
<path d="M50.6177 21.5794C50.6804 22.3444 50.5894 23.1146 50.3504 23.8414C50.1114 24.5681 49.7296 25.2357 49.2291 25.8019C48.7044 26.3236 48.0846 26.7319 47.4058 27.0027C46.7271 27.2736 46.0031 27.4017 45.2761 27.3795C44.5939 27.4413 43.9067 27.359 43.2561 27.1377C42.6055 26.9164 42.005 26.5606 41.491 26.0919C41.0101 25.5897 40.6331 24.9912 40.3828 24.3331C40.1325 23.675 40.0142 22.9709 40.0352 22.2639C39.9278 21.2907 40.1026 20.3064 40.5374 19.4366C40.9722 18.5668 41.6473 17.8509 42.4765 17.3802C43.3653 16.9289 44.3422 16.6947 45.3321 16.6958C46.7104 16.5805 48.0784 17.021 49.1507 17.9254C49.6301 18.3929 50.0087 18.9602 50.2615 19.5899C50.5143 20.2197 50.6357 20.8977 50.6177 21.5794V21.5794ZM48.4788 22.0203C48.5125 20.851 48.2041 19.6986 47.5942 18.7142C47.3209 18.3222 46.9548 18.0096 46.5312 17.8064C46.1076 17.6033 45.6407 17.5164 45.1753 17.5542C44.5744 17.5242 43.9814 17.7048 43.4917 18.0668C43.0021 18.4288 42.6444 18.9511 42.4765 19.5494C42.2557 20.2688 42.1572 21.0224 42.1853 21.7766C42.154 22.9988 42.4568 24.2052 43.0588 25.2567C43.3255 25.6826 43.6984 26.026 44.1379 26.2506C44.5775 26.4752 45.0674 26.5727 45.556 26.5327C46.1667 26.5566 46.7661 26.3586 47.2507 25.9731C47.7354 25.5876 48.0747 25.0387 48.2101 24.4215C48.4283 23.6422 48.5192 22.8306 48.4788 22.0203V22.0203Z" fill="#231F20"/>
<defs>
<linearGradient id="paint0_linear" x1="0" y1="30.2832" x2="60.9746" y2="30.2832" gradientUnits="userSpaceOnUse">
<stop stop-color="#DDDDDD"/>
<stop offset="0.161458" stop-color="white"/>
<stop offset="0.286458" stop-color="#B2B2B3"/>
<stop offset="0.385417" stop-color="#D0D0D0"/>
<stop offset="0.494792" stop-color="#3B393D"/>
<stop offset="0.598958" stop-color="#555254"/>
<stop offset="0.744792" stop-color="#F2F1F2"/>
<stop offset="1" stop-color="#E1E2E4"/>
</linearGradient>
</defs>
</svg>
